<svg width="75" height="75" viewBox="0 0 75 75" fill="none" xmlns="http://www.w3.org/2000/svg">
<path d="M12.5003 56.2505V54.2192C12.5003 53.1567 13.0003 52.1567 13.7816 51.688C19.0628 48.5317 25.0941 46.8755 31.2503 46.8755C31.3441 46.8755 31.4066 46.8755 31.5003 46.9067C31.8128 44.7192 32.4378 42.6255 33.3441 40.7192C32.6566 40.6567 31.9691 40.6255 31.2503 40.6255C23.6878 40.6255 16.6253 42.7192 10.5941 46.313C7.84406 47.938 6.25031 51.0005 6.25031 54.2192V62.5005H35.1878C33.8753 60.6255 32.8441 58.5005 32.1566 56.2505H12.5003Z" fill="#DD695D"/>
<path d="M31.25 37.5005C38.1562 37.5005 43.75 31.9067 43.75 25.0005C43.75 18.0942 38.1562 12.5005 31.25 12.5005C24.3438 12.5005 18.75 18.0942 18.75 25.0005C18.75 31.9067 24.3438 37.5005 31.25 37.5005ZM31.25 18.7505C34.6875 18.7505 37.5 21.563 37.5 25.0005C37.5 28.438 34.6875 31.2505 31.25 31.2505C27.8125 31.2505 25 28.438 25 25.0005C25 21.563 27.8125 18.7505 31.25 18.7505Z" fill="#DD695D"/>
<path d="M64.8441 50.001C64.8441 49.3135 64.7504 48.6885 64.6566 48.0322L68.2191 44.876L65.0941 39.4697L60.5629 41.001C59.5629 40.1572 58.4379 39.501 57.1879 39.0322L56.2504 34.376H50.0004L49.0629 39.0322C47.8129 39.501 46.6879 40.1572 45.6879 41.001L41.1566 39.4697L38.0316 44.876L41.5941 48.0322C41.5004 48.6885 41.4066 49.3135 41.4066 50.001C41.4066 50.6885 41.5004 51.3135 41.5941 51.9697L38.0316 55.126L41.1566 60.5322L45.6879 59.001C46.6879 59.8447 47.8129 60.501 49.0629 60.9697L50.0004 65.626H56.2504L57.1879 60.9697C58.4379 60.501 59.5629 59.8447 60.5629 59.001L65.0941 60.5322L68.2191 55.126L64.6566 51.9697C64.7504 51.3135 64.8441 50.6885 64.8441 50.001ZM53.1254 56.251C49.6879 56.251 46.8754 53.4385 46.8754 50.001C46.8754 46.5635 49.6879 43.751 53.1254 43.751C56.5629 43.751 59.3754 46.5635 59.3754 50.001C59.3754 53.4385 56.5629 56.251 53.1254 56.251Z" fill="#BABABA"/>
</svg>
