<svg width="75" height="75" viewBox="0 0 75 75" fill="none" xmlns="http://www.w3.org/2000/svg">
<path d="M12.5 41.1602C15.9375 41.1602 18.75 38.3477 18.75 34.9102C18.75 31.4727 15.9375 28.6602 12.5 28.6602C9.0625 28.6602 6.25 31.4727 6.25 34.9102C6.25 38.3477 9.0625 41.1602 12.5 41.1602ZM16.0312 44.5977C14.875 44.4102 13.7188 44.2852 12.5 44.2852C9.40625 44.2852 6.46875 44.9414 3.8125 46.0977C1.5 47.0977 0 49.3477 0 51.8789V56.7852H14.0625V51.7539C14.0625 49.1602 14.7812 46.7227 16.0312 44.5977ZM62.5 41.1602C65.9375 41.1602 68.75 38.3477 68.75 34.9102C68.75 31.4727 65.9375 28.6602 62.5 28.6602C59.0625 28.6602 56.25 31.4727 56.25 34.9102C56.25 38.3477 59.0625 41.1602 62.5 41.1602ZM75 51.8789C75 49.3477 73.5 47.0977 71.1875 46.0977C68.5313 44.9414 65.5938 44.2852 62.5 44.2852C61.2812 44.2852 60.125 44.4102 58.9688 44.5977C60.2188 46.7227 60.9375 49.1602 60.9375 51.7539V56.7852H75V51.8789ZM50.75 43.1914C47.0938 41.5664 42.5938 40.3789 37.5 40.3789C32.4062 40.3789 27.9062 41.5977 24.25 43.1914C20.875 44.6914 18.75 48.0664 18.75 51.7539V56.7852H56.25V51.7539C56.25 48.0664 54.125 44.6914 50.75 43.1914ZM25.2188 50.5352C25.5 49.8164 25.625 49.3164 28.0625 48.3789C31.0937 47.1914 34.2812 46.6289 37.5 46.6289C40.7188 46.6289 43.9062 47.1914 46.9375 48.3789C49.3438 49.3164 49.4688 49.8164 49.7812 50.5352H25.2188ZM37.5 25.5352C39.2188 25.5352 40.625 26.9414 40.625 28.6602C40.625 30.3789 39.2188 31.7852 37.5 31.7852C35.7812 31.7852 34.375 30.3789 34.375 28.6602C34.375 26.9414 35.7812 25.5352 37.5 25.5352ZM37.5 19.2852C32.3125 19.2852 28.125 23.4727 28.125 28.6602C28.125 33.8477 32.3125 38.0352 37.5 38.0352C42.6875 38.0352 46.875 33.8477 46.875 28.6602C46.875 23.4727 42.6875 19.2852 37.5 19.2852Z" fill="#DD695D"/>
<mask id="mask0" style="mask-type:alpha" maskUnits="userSpaceOnUse" x="0" y="19" width="75" height="38">
<path d="M12.5 41.1602C15.9375 41.1602 18.75 38.3477 18.75 34.9102C18.75 31.4727 15.9375 28.6602 12.5 28.6602C9.0625 28.6602 6.25 31.4727 6.25 34.9102C6.25 38.3477 9.0625 41.1602 12.5 41.1602ZM16.0312 44.5977C14.875 44.4102 13.7188 44.2852 12.5 44.2852C9.40625 44.2852 6.46875 44.9414 3.8125 46.0977C1.5 47.0977 0 49.3477 0 51.8789V56.7852H14.0625V51.7539C14.0625 49.1602 14.7812 46.7227 16.0312 44.5977ZM62.5 41.1602C65.9375 41.1602 68.75 38.3477 68.75 34.9102C68.75 31.4727 65.9375 28.6602 62.5 28.6602C59.0625 28.6602 56.25 31.4727 56.25 34.9102C56.25 38.3477 59.0625 41.1602 62.5 41.1602ZM75 51.8789C75 49.3477 73.5 47.0977 71.1875 46.0977C68.5313 44.9414 65.5938 44.2852 62.5 44.2852C61.2812 44.2852 60.125 44.4102 58.9688 44.5977C60.2188 46.7227 60.9375 49.1602 60.9375 51.7539V56.7852H75V51.8789ZM50.75 43.1914C47.0938 41.5664 42.5938 40.3789 37.5 40.3789C32.4062 40.3789 27.9062 41.5977 24.25 43.1914C20.875 44.6914 18.75 48.0664 18.75 51.7539V56.7852H56.25V51.7539C56.25 48.0664 54.125 44.6914 50.75 43.1914ZM25.2188 50.5352C25.5 49.8164 25.625 49.3164 28.0625 48.3789C31.0937 47.1914 34.2812 46.6289 37.5 46.6289C40.7188 46.6289 43.9062 47.1914 46.9375 48.3789C49.3438 49.3164 49.4688 49.8164 49.7812 50.5352H25.2188ZM37.5 25.5352C39.2188 25.5352 40.625 26.9414 40.625 28.6602C40.625 30.3789 39.2188 31.7852 37.5 31.7852C35.7812 31.7852 34.375 30.3789 34.375 28.6602C34.375 26.9414 35.7812 25.5352 37.5 25.5352ZM37.5 19.2852C32.3125 19.2852 28.125 23.4727 28.125 28.6602C28.125 33.8477 32.3125 38.0352 37.5 38.0352C42.6875 38.0352 46.875 33.8477 46.875 28.6602C46.875 23.4727 42.6875 19.2852 37.5 19.2852Z" fill="white"/>
</mask>
<g mask="url(#mask0)">
<path fill-rule="evenodd" clip-rule="evenodd" d="M10.5 25.5L19.5 27.5L22 36.5L17 48V59.5H-3V48L4.5 41L2.5 32L10.5 25.5ZM64.5 25.5L55.5 27.5L53 36.5L58 48V59.5H78V48L70.5 41L72.5 32L64.5 25.5Z" fill="#BABABA"/>
</g>
</svg>
