<svg width="75" height="75" viewBox="0 0 75 75" fill="none" xmlns="http://www.w3.org/2000/svg">
<path d="M12.6603 18.75H19.0706V26.8198H51.1219V18.75H57.5321V34.375H63.9424V18.75C63.9424 15.3125 61.0578 12.5 57.5321 12.5H44.1347C42.7886 8.875 39.2629 6.25 35.0962 6.25C30.9296 6.25 27.4039 8.875 26.0578 12.5H12.6603C9.13471 12.5 6.25009 15.3125 6.25009 18.75V62.5C6.25009 65.9375 9.13471 68.75 12.6603 68.75H31.8911V62.5H12.6603V18.75ZM35.0962 12.5C36.8591 12.5 38.3014 13.9062 38.3014 15.625C38.3014 17.3437 36.8591 18.75 35.0962 18.75C33.3334 18.75 31.8911 17.3437 31.8911 15.625C31.8911 13.9062 33.3334 12.5 35.0962 12.5Z" fill="#BABABA"/>
<path d="M63.9424 39.0625L46.3462 56.25L36.6988 46.875L31.8911 51.5625L46.3462 65.625L68.7501 43.75L63.9424 39.0625Z" fill="#DD695D"/>
<rect x="19.0783" y="30.4263" width="32.0399" height="5.72299" fill="#BABABA"/>
<rect x="19.0783" y="38.0879" width="24.9502" height="5.72299" fill="#BABABA"/>
</svg>
