<svg width="75" height="75" viewBox="0 0 75 75" fill="none" xmlns="http://www.w3.org/2000/svg">
<path d="M34.125 21.625H40.375V27.875H34.125V21.625ZM34.125 34.125H40.375V52.875H34.125V34.125ZM37.25 6C20 6 6 20 6 37.25C6 54.5 20 68.5 37.25 68.5C54.5 68.5 68.5 54.5 68.5 37.25C68.5 20 54.5 6 37.25 6ZM37.25 62.25C23.4688 62.25 12.25 51.0312 12.25 37.25C12.25 23.4688 23.4688 12.25 37.25 12.25C51.0312 12.25 62.25 23.4688 62.25 37.25C62.25 51.0312 51.0312 62.25 37.25 62.25Z" fill="#BABABA"/>
<mask id="mask0" style="mask-type:alpha" maskUnits="userSpaceOnUse" x="6" y="6" width="63" height="63">
<path d="M34.125 21.625H40.375V27.875H34.125V21.625ZM34.125 34.125H40.375V52.875H34.125V34.125ZM37.25 6C20 6 6 20 6 37.25C6 54.5 20 68.5 37.25 68.5C54.5 68.5 68.5 54.5 68.5 37.25C68.5 20 54.5 6 37.25 6ZM37.25 62.25C23.4688 62.25 12.25 51.0312 12.25 37.25C12.25 23.4688 23.4688 12.25 37.25 12.25C51.0312 12.25 62.25 23.4688 62.25 37.25C62.25 51.0312 51.0312 62.25 37.25 62.25Z" fill="#BABABA"/>
</mask>
<g mask="url(#mask0)">
<rect x="32.7499" y="20.75" width="10" height="34" fill="#DD695D"/>
</g>
</svg>
