<svg width="20" height="18" viewBox="0 0 20 18" fill="none" xmlns="http://www.w3.org/2000/svg">
<path d="M10.0005 4V0H0.000488281V18H20.0005V4H10.0005ZM4.00049 16H2.00049V14H4.00049V16ZM4.00049 12H2.00049V10H4.00049V12ZM4.00049 8H2.00049V6H4.00049V8ZM4.00049 4H2.00049V2H4.00049V4ZM8.00049 16H6.00049V14H8.00049V16ZM8.00049 12H6.00049V10H8.00049V12ZM8.00049 8H6.00049V6H8.00049V8ZM8.00049 4H6.00049V2H8.00049V4ZM18.0005 16H10.0005V14H12.0005V12H10.0005V10H12.0005V8H10.0005V6H18.0005V16ZM16.0005 8H14.0005V10H16.0005V8ZM16.0005 12H14.0005V14H16.0005V12Z" fill="#DD695D"/>
</svg>
