<svg width="36" height="36" viewBox="0 0 36 36" fill="none" xmlns="http://www.w3.org/2000/svg">
<path d="M4.75774 14.5271L4.75775 14.5271C4.36574 14.2544 4.2824 13.7265 4.55276 13.3379L4.5532 13.3373L4.55321 13.3373C6.04727 11.2244 7.94945 9.56364 10.214 8.40113C14.9526 5.95637 21.0167 5.94124 25.7705 8.38604L4.75774 14.5271ZM4.75774 14.5271L4.75939 14.5282M4.75774 14.5271L4.75939 14.5282M4.75939 14.5282C4.91029 14.6288 5.07949 14.68 5.24986 14.68C5.51647 14.68 5.77716 14.5633 5.91906 14.3192C7.25971 12.4435 8.95672 10.9556 10.9806 9.91391L10.9808 9.91381C15.2419 7.70875 20.7128 7.70864 24.9893 9.899L24.9893 9.89904M4.75939 14.5282L24.9893 9.89904M24.9893 9.89904C26.9995 10.9265 28.6972 12.4005 30.0381 14.2776C30.3109 14.6692 30.8385 14.7523 31.227 14.4821C31.6181 14.21 31.7034 13.6667 31.4311 13.2917M24.9893 9.89904L31.4311 13.2917M21.6256 27.247L21.6259 27.2472C22.6715 27.9541 23.8962 28.295 25.3799 28.295C25.7335 28.295 26.3276 28.2506 26.9222 28.1466C27.3827 28.0616 27.8236 28.3691 27.9082 28.8421C27.9933 29.3026 27.686 29.7435 27.2131 29.8283C27.2129 29.8284 27.2127 29.8284 27.2124 29.8284L27.1949 29.73C26.3399 29.895 25.5899 29.91 25.3799 29.91L21.6256 27.247ZM21.6256 27.247C19.8222 26.0348 18.7599 24.0704 18.7599 21.99C18.7599 21.5148 18.3851 21.14 17.9099 21.14C17.4346 21.14 17.0599 21.5148 17.0599 21.99C17.0599 24.6345 18.4124 27.1248 20.6735 28.6576L21.6256 27.247ZM31.4311 13.2917C29.9369 11.1939 28.0348 9.54837 25.7706 8.38607L31.4311 13.2917ZM9.70748 6.70293L9.70803 6.70263C12.2578 5.30102 15.0611 4.6 18.0149 4.6C20.9819 4.6 23.4559 5.22529 26.3222 6.70293C26.4427 6.7713 26.5792 6.805 26.7149 6.805C27.0228 6.805 27.3117 6.63364 27.4636 6.33116C27.6843 5.92184 27.5296 5.41158 27.106 5.19128L27.1056 5.19109C24.0326 3.6094 21.227 2.9 18.0149 2.9C14.7733 2.9 11.6969 3.68411 8.89223 5.20707C8.483 5.42874 8.33098 5.95473 8.55193 6.36263L8.55188 6.36265L8.55348 6.36539C8.78931 6.76968 9.29765 6.92492 9.70748 6.70293ZM12.4922 27.7164L12.4919 27.7158C11.5867 26.1132 11.1099 24.1357 11.1099 21.99C11.1099 18.4208 14.1944 15.505 17.9999 15.505C21.8053 15.505 24.8899 18.4208 24.8899 21.99C24.8899 22.4652 25.2646 22.84 25.7399 22.84C26.2151 22.84 26.5899 22.4652 26.5899 21.99C26.5899 17.4752 22.7304 13.805 17.9999 13.805C13.2693 13.805 9.40986 17.4752 9.40986 21.99C9.40986 24.4194 9.95301 26.6867 10.9976 28.5488C12.0074 30.3724 12.7183 31.2198 14.0274 32.5289C14.1835 32.7012 14.406 32.785 14.6249 32.785C14.8464 32.785 15.065 32.6996 15.2471 32.534L15.2473 32.5342L15.2524 32.5289C15.574 32.1903 15.574 31.6647 15.2524 31.3261L15.2524 31.3261L15.251 31.3247C14.1 30.1588 13.4464 29.431 12.4922 27.7164ZM22.1432 33.0664L22.1432 33.0664L22.1456 33.067C22.207 33.0824 22.2919 33.1 22.3649 33.1C22.7233 33.1 23.0805 32.846 23.167 32.4536C23.2841 32.0137 23.031 31.5382 22.5707 31.4184C20.4714 30.8376 19.122 30.0659 17.7103 28.669C15.9144 26.888 14.9349 24.5137 14.9349 21.975C14.9349 20.4316 16.2785 19.165 17.9549 19.165C19.6312 19.165 20.9749 20.4316 20.9749 21.975C20.9749 24.4645 23.094 26.485 25.6949 26.485C28.2957 26.485 30.4149 24.4645 30.4149 21.975C30.4149 15.4349 24.8151 10.13 17.9399 10.13C13.0584 10.13 8.59706 12.8653 6.58459 17.087L6.58448 17.0872C5.90235 18.5273 5.55486 20.1772 5.55486 21.99C5.55486 24.0272 5.91709 25.9889 6.65598 27.9645C6.80977 28.3906 7.30173 28.6281 7.74418 28.4589C8.18839 28.3042 8.40739 27.8097 8.23834 27.3695C7.3439 24.9842 7.23986 23.152 7.23986 21.99C7.23986 20.4426 7.53743 19.0329 8.11496 17.8334L8.11509 17.8331C9.85245 14.195 13.7159 11.845 17.9399 11.845C23.8903 11.845 28.7149 16.3958 28.7149 21.99C28.7149 23.5334 27.3712 24.8 25.6949 24.8C24.0185 24.8 22.6749 23.5334 22.6749 21.99C22.6749 19.5005 20.5557 17.48 17.9549 17.48C15.354 17.48 13.2349 19.5005 13.2349 21.99C13.2349 24.9866 14.4004 27.7871 16.5194 29.891L16.5198 29.8914C18.1677 31.5091 19.743 32.4022 22.1432 33.0664Z" fill="#DD695D" stroke="#DD695D" stroke-width="0.2"/>
</svg>
