<svg width="133" height="17" viewBox="0 0 133 17" fill="none" xmlns="http://www.w3.org/2000/svg">
<path d="M46.0244 10.7121C46.0484 10.7121 46.0715 10.7026 46.0885 10.6857C46.1055 10.6687 46.1151 10.6457 46.1151 10.6218V9.46389C46.1151 9.43993 46.1055 9.41695 46.0885 9.4C46.0715 9.38306 46.0484 9.37354 46.0244 9.37354H31.0751C31.051 9.37354 31.0279 9.38306 31.0109 9.4C30.9939 9.41695 30.9844 9.43993 30.9844 9.46389V10.6218C30.9844 10.6457 30.9939 10.6687 31.0109 10.6857C31.0279 10.7026 31.051 10.7121 31.0751 10.7121H37.3087V16.2372C37.3095 16.2608 37.3194 16.2834 37.3362 16.3001C37.353 16.3169 37.3756 16.3267 37.3994 16.3275H39.7303C39.7541 16.3267 39.7767 16.3169 39.7935 16.3001C39.8103 16.2834 39.8201 16.2608 39.821 16.2372V10.7121H46.0244Z" fill="#1D1D1B"/>
<path d="M35.0147 7.00773C36.0285 7.78681 37.2727 8.20935 38.553 8.20935C39.8333 8.20935 41.0775 7.78681 42.0913 7.00773C42.5431 6.67086 42.9099 6.23369 43.1626 5.73092C43.4152 5.22815 43.5468 4.67362 43.5468 4.11136C43.5468 3.54909 43.4152 2.99457 43.1626 2.4918C42.9099 1.98903 42.5431 1.55186 42.0913 1.21499C41.0811 0.427717 39.8355 0 38.553 0C37.2705 0 36.0249 0.427717 35.0147 1.21499C34.5641 1.55269 34.1984 1.99013 33.9466 2.49279C33.6948 2.99546 33.5637 3.54956 33.5637 4.11136C33.5637 4.67316 33.6948 5.22726 33.9466 5.72992C34.1984 6.23258 34.5641 6.67003 35.0147 7.00773ZM36.7847 2.16203C37.0011 1.90509 37.2722 1.6994 37.5784 1.5599C37.8846 1.4204 38.2181 1.35059 38.5547 1.35554C38.8927 1.35121 39.2274 1.42124 39.5351 1.56065C39.8428 1.70006 40.1159 1.9054 40.3348 2.16203C40.7948 2.70814 41.047 3.39835 41.047 4.11136C41.047 4.82437 40.7948 5.51457 40.3348 6.06068C40.117 6.31883 39.8442 6.52543 39.5363 6.66551C39.2284 6.80558 38.8931 6.87562 38.5547 6.87052C38.2172 6.87658 37.8828 6.80659 37.5763 6.66578C37.2698 6.52497 36.9992 6.31697 36.7847 6.05733C36.331 5.50893 36.0829 4.82038 36.0829 4.10968C36.0829 3.39899 36.331 2.71043 36.7847 2.16203Z" fill="#1D1D1B"/>
<path d="M59.7408 9.26769C59.7408 9.29166 59.7504 9.31464 59.7674 9.33158C59.7844 9.34853 59.8075 9.35805 59.8315 9.35805H62.1624C62.1865 9.35805 62.2095 9.34853 62.2266 9.33158C62.2436 9.31464 62.2531 9.29166 62.2531 9.26769V0.332606C62.2536 0.320614 62.2516 0.308655 62.2472 0.297479C62.2428 0.286304 62.2361 0.276155 62.2276 0.267669C62.2191 0.259183 62.2089 0.252547 62.1977 0.248173C62.1865 0.243799 62.1745 0.241784 62.1624 0.242254H59.8315C59.8195 0.241784 59.8075 0.243799 59.7963 0.248173C59.7851 0.252547 59.7749 0.259183 59.7664 0.267669C59.7578 0.276155 59.7512 0.286304 59.7468 0.297479C59.7424 0.308655 59.7404 0.320614 59.7408 0.332606V3.61885H56.7181C56.7062 3.6184 56.6943 3.62029 56.6831 3.62443C56.6719 3.62856 56.6617 3.63485 56.6529 3.64293C56.6442 3.65101 56.6372 3.66072 56.6322 3.67152C56.6272 3.68232 56.6245 3.69398 56.624 3.70585V4.86708C56.6249 4.89135 56.6352 4.91433 56.6527 4.93118C56.6703 4.94804 56.6937 4.95745 56.7181 4.95743H59.7408V9.26769Z" fill="#1D1D1B"/>
<path d="M60.46 10.665C59.5969 9.95937 58.515 9.57373 57.3986 9.57373C56.2822 9.57373 55.2003 9.95937 54.3372 10.665C53.9451 10.9831 53.629 11.3842 53.4118 11.8391C53.1945 12.2941 53.0816 12.7915 53.0811 13.2953C53.0795 13.798 53.1916 14.2946 53.409 14.7483C53.6265 15.2019 53.9437 15.6009 54.3372 15.9156C55.2022 16.617 56.2834 17 57.3986 17C58.5139 17 59.595 16.617 60.46 15.9156C60.8541 15.6012 61.172 15.2024 61.39 14.7487C61.6081 14.2951 61.7207 13.7983 61.7195 13.2953C61.7191 12.7911 61.6058 12.2934 61.3879 11.8384C61.17 11.3834 60.853 10.9825 60.46 10.665ZM58.69 14.9016C58.5537 15.1216 58.3632 15.3033 58.1366 15.4293C57.91 15.5553 57.6548 15.6214 57.3953 15.6214C57.1357 15.6214 56.8805 15.5553 56.6539 15.4293C56.4273 15.3033 56.2368 15.1216 56.1005 14.9016C55.7389 14.4442 55.5446 13.8776 55.5497 13.2953C55.5443 12.7048 55.7383 12.1297 56.1005 11.6622C56.2343 11.439 56.4239 11.2541 56.6509 11.1258C56.8778 10.9975 57.1343 10.93 57.3953 10.93C57.6562 10.93 57.9127 10.9975 58.1396 11.1258C58.3666 11.2541 58.5562 11.439 58.69 11.6622C59.0437 12.132 59.2325 12.7047 59.2274 13.2919C59.2329 13.8731 59.0438 14.4395 58.69 14.9016Z" fill="#1D1D1B"/>
<path d="M81.5288 4.11355H78.9494V0.305267C78.9499 0.293562 78.9479 0.281888 78.9437 0.270942C78.9396 0.259997 78.9332 0.250003 78.925 0.241566C78.9169 0.233128 78.9071 0.22642 78.8963 0.22184C78.8855 0.21726 78.8738 0.214902 78.8621 0.214911H76.5312C76.5191 0.21444 76.5071 0.216455 76.4959 0.220829C76.4847 0.225203 76.4745 0.231844 76.466 0.24033C76.4575 0.248816 76.4508 0.258965 76.4464 0.270141C76.442 0.281316 76.44 0.293275 76.4405 0.305267V16.2746C76.4405 16.2863 76.4428 16.2979 76.4474 16.3087C76.452 16.3195 76.4588 16.3293 76.4672 16.3374C76.4757 16.3455 76.4857 16.3518 76.4967 16.356C76.5077 16.3602 76.5194 16.3621 76.5312 16.3616H78.8621C78.8852 16.3616 78.9075 16.3525 78.9238 16.3362C78.9402 16.3198 78.9494 16.2977 78.9494 16.2746V5.45214H81.5288C81.5529 5.45214 81.576 5.44262 81.593 5.42568C81.61 5.40873 81.6195 5.38575 81.6195 5.36179V4.20056C81.6195 4.18885 81.6172 4.17725 81.6126 4.16647C81.608 4.15569 81.6012 4.14595 81.5928 4.13783C81.5843 4.1297 81.5743 4.12336 81.5633 4.11919C81.5523 4.11502 81.5406 4.1131 81.5288 4.11355Z" fill="#1D1D1B"/>
<path d="M75.4259 9.23645C74.9755 9.11341 74.5488 8.91663 74.1631 8.65417C73.6295 8.28761 73.1607 7.83525 72.776 7.31558C71.9248 6.14483 71.4824 4.72832 71.5165 3.28308V0.324798C71.5169 0.312806 71.5149 0.300847 71.5105 0.289672C71.5061 0.278496 71.4995 0.268347 71.491 0.259861C71.4824 0.251375 71.4723 0.244734 71.461 0.24036C71.4498 0.235986 71.4378 0.233971 71.4258 0.234442H69.0277C69.0157 0.233971 69.0037 0.235986 68.9925 0.24036C68.9812 0.244734 68.9711 0.251375 68.9625 0.259861C68.954 0.268347 68.9474 0.278496 68.943 0.289672C68.9386 0.300847 68.9366 0.312806 68.937 0.324798V3.28308C68.9709 4.72207 68.5309 6.13252 67.6843 7.29885C67.3035 7.81972 66.8368 8.27235 66.3039 8.63744C65.9173 8.90051 65.4893 9.09732 65.0376 9.21972C64.9973 9.21972 64.9839 9.31343 65.0376 9.36028L66.0117 10.2103C66.0814 10.2482 66.1609 10.2645 66.24 10.2571C67.1046 10.1124 67.9156 9.74302 68.5911 9.18626C68.8084 9.01638 69.0148 8.83308 69.2091 8.63744C69.6752 8.18571 70.0214 7.6257 70.2167 7.00771C70.4102 7.62647 70.7567 8.18687 71.2243 8.63744C71.4178 8.83388 71.6242 9.01723 71.8423 9.18626C72.5179 9.74288 73.3288 10.1122 74.1933 10.2571C74.2735 10.2643 74.354 10.2481 74.4251 10.2103L75.3991 9.36028C75.4797 9.33016 75.4662 9.24649 75.4259 9.23645Z" fill="#1D1D1B"/>
<path d="M97.1633 0.215852H94.8357C94.8236 0.215402 94.8114 0.217406 94.8 0.221745C94.7886 0.226083 94.7782 0.232667 94.7694 0.241103C94.7607 0.249538 94.7537 0.259656 94.7489 0.270842C94.7441 0.282028 94.7417 0.294056 94.7417 0.306208V3.42177H92.3537C92.3354 3.42235 92.3174 3.4167 92.3028 3.40575C92.2881 3.3948 92.2777 3.37921 92.2731 3.36154C92.0395 2.45066 91.4898 1.6516 90.7214 1.10602C89.9064 0.507649 88.9156 0.194674 87.9035 0.215852C86.7434 0.194767 85.6197 0.620292 84.7665 1.40385C84.3555 1.76069 84.026 2.20116 83.8002 2.69558C83.5744 3.19 83.4575 3.7269 83.4575 4.27011C83.4575 4.81331 83.5744 5.35021 83.8002 5.84463C84.026 6.33905 84.3555 6.77952 84.7665 7.13636C85.6015 7.87157 86.6696 8.29056 87.7835 8.31992C88.8975 8.34929 89.9862 7.98717 90.8591 7.29699C91.6486 6.6848 92.1765 5.79778 92.3369 4.81391C92.3394 4.79558 92.3488 4.77886 92.3631 4.76708C92.3774 4.7553 92.3956 4.74931 92.4142 4.75032H94.7451V8.40133C94.7451 8.41348 94.7475 8.42551 94.7523 8.4367C94.757 8.44788 94.764 8.45799 94.7728 8.46643C94.7816 8.47486 94.792 8.48145 94.8034 8.48579C94.8148 8.49013 94.8269 8.49214 94.8391 8.49168H97.1666C97.1904 8.49085 97.213 8.48106 97.2298 8.46429C97.2467 8.44753 97.2565 8.42503 97.2573 8.40133V0.306208C97.2573 0.294056 97.2549 0.282028 97.2501 0.270842C97.2454 0.259656 97.2384 0.249538 97.2296 0.241103C97.2208 0.232667 97.2104 0.226083 97.199 0.221745C97.1876 0.217406 97.1755 0.215402 97.1633 0.215852ZM89.2805 6.20939C89.1351 6.4453 88.9331 6.64156 88.6928 6.78056C88.4524 6.91957 88.1813 6.99698 87.9035 7.00585C87.6269 6.99589 87.3571 6.91797 87.118 6.77901C86.8789 6.64006 86.678 6.44438 86.5332 6.20939C86.145 5.64622 85.9462 4.9748 85.9656 4.29186C85.9446 3.60721 86.1473 2.9343 86.5432 2.37433C86.6794 2.13035 86.8786 1.92708 87.1201 1.78555C87.3616 1.64403 87.6367 1.5694 87.9169 1.5694C88.1971 1.5694 88.4722 1.64403 88.7137 1.78555C88.9553 1.92708 89.1544 2.13035 89.2906 2.37433C89.677 2.93552 89.8735 3.60496 89.8515 4.28516C89.8759 4.97132 89.6755 5.64674 89.2805 6.20939Z" fill="#1D1D1B"/>
<path d="M132.902 9.08033H118.124C118.101 9.08116 118.078 9.09094 118.061 9.10771C118.044 9.12448 118.035 9.14698 118.034 9.17068V10.3453C118.034 10.3696 118.043 10.3929 118.06 10.4104C118.077 10.4279 118.1 10.4381 118.124 10.439H124.264V16.2685C124.264 16.2916 124.273 16.3138 124.29 16.3301C124.306 16.3464 124.328 16.3556 124.351 16.3556H126.682C126.694 16.356 126.706 16.3541 126.717 16.3499C126.728 16.3457 126.738 16.3394 126.746 16.3313C126.755 16.3232 126.761 16.3134 126.766 16.3026C126.771 16.2919 126.773 16.2803 126.773 16.2685V10.439H132.909C132.921 10.439 132.933 10.4366 132.945 10.4318C132.956 10.4271 132.966 10.4201 132.974 10.4114C132.983 10.4026 132.99 10.3923 132.994 10.3809C132.998 10.3695 133 10.3574 133 10.3453V9.17068C133 9.15823 132.997 9.14591 132.992 9.13448C132.987 9.12306 132.98 9.11278 132.971 9.1043C132.962 9.09582 132.951 9.08931 132.939 9.08518C132.927 9.08106 132.915 9.0794 132.902 9.08033Z" fill="#1D1D1B"/>
<path d="M114.034 15.0181H105.593V12.1134C105.593 12.0894 105.584 12.0664 105.567 12.0495C105.55 12.0325 105.527 12.023 105.503 12.023H103.175C103.163 12.0225 103.151 12.0246 103.14 12.0289C103.129 12.0333 103.118 12.0399 103.11 12.0484C103.101 12.0569 103.095 12.0671 103.09 12.0782C103.086 12.0894 103.084 12.1014 103.084 12.1134V14.66C103.073 14.8906 103.111 15.1209 103.197 15.3356C103.282 15.5502 103.412 15.7443 103.578 15.9049C103.928 16.2092 104.38 16.3696 104.844 16.3534H114.034C114.046 16.3538 114.057 16.3519 114.069 16.3478C114.08 16.3436 114.09 16.3374 114.099 16.3293C114.108 16.3212 114.115 16.3115 114.12 16.3007C114.124 16.2899 114.127 16.2782 114.128 16.2663V15.1085C114.127 15.0842 114.117 15.0612 114.099 15.0444C114.081 15.0275 114.058 15.0181 114.034 15.0181Z" fill="#1D1D1B"/>
<path d="M115.646 9.07638H109.506V7.02499H113.698C113.722 7.02499 113.745 7.01546 113.762 6.99852C113.779 6.98157 113.789 6.95859 113.789 6.93463V0.305267C113.789 0.281303 113.779 0.258322 113.762 0.241377C113.745 0.224432 113.722 0.214911 113.698 0.214911H111.347C111.335 0.21444 111.323 0.216455 111.312 0.220829C111.3 0.225203 111.29 0.231844 111.282 0.24033C111.273 0.248816 111.267 0.258965 111.262 0.270141C111.258 0.281316 111.256 0.293275 111.256 0.305267V2.33657H105.211V0.305267C105.211 0.281872 105.202 0.259383 105.185 0.242531C105.169 0.225679 105.147 0.215777 105.123 0.214911H102.792C102.78 0.214461 102.768 0.216465 102.757 0.220803C102.745 0.225142 102.735 0.231726 102.726 0.240161C102.717 0.248597 102.71 0.258714 102.706 0.269901C102.701 0.281087 102.698 0.293114 102.698 0.305267V5.35175C102.69 5.57633 102.728 5.80027 102.811 6.00938C102.893 6.21848 103.019 6.40821 103.179 6.56652C103.529 6.88225 103.99 7.04708 104.462 7.02499H106.991V9.07638H100.861C100.849 9.0759 100.837 9.07792 100.826 9.08229C100.815 9.08667 100.805 9.0933 100.796 9.10179C100.788 9.11028 100.781 9.12042 100.777 9.1316C100.772 9.14278 100.77 9.15473 100.771 9.16673V10.3413C100.77 10.3533 100.772 10.3653 100.777 10.3765C100.781 10.3876 100.788 10.3978 100.796 10.4063C100.805 10.4148 100.815 10.4214 100.826 10.4258C100.837 10.4301 100.849 10.4322 100.861 10.4317H115.639C115.663 10.4317 115.686 10.4222 115.703 10.4052C115.72 10.3883 115.73 10.3653 115.73 10.3413V9.16673C115.729 9.1441 115.72 9.12249 115.705 9.10588C115.69 9.08927 115.669 9.07879 115.646 9.07638ZM105.217 5.68974V3.68186H111.263V5.68974H105.217Z" fill="#1D1D1B"/>
<path d="M130.948 0.215487H128.614C128.59 0.216354 128.568 0.226256 128.552 0.243107C128.536 0.259959 128.526 0.282449 128.526 0.305844V2.36058H122.481V0.305844C122.481 0.294139 122.479 0.282465 122.475 0.271519C122.471 0.260573 122.465 0.25058 122.457 0.242142C122.448 0.233705 122.439 0.226997 122.428 0.222417C122.417 0.217836 122.405 0.215479 122.394 0.215487H120.063C120.051 0.214974 120.039 0.21699 120.028 0.221395C120.017 0.225801 120.007 0.232495 119.999 0.241039C119.99 0.249584 119.984 0.259785 119.98 0.270957C119.976 0.28213 119.974 0.29402 119.975 0.305844V5.90449C119.967 6.12927 120.005 6.35341 120.087 6.56297C120.169 6.77252 120.293 6.96302 120.452 7.12261C120.803 7.4341 121.262 7.59732 121.732 7.57773H130.955C130.966 7.57774 130.978 7.57538 130.989 7.5708C131 7.56622 131.01 7.55951 131.018 7.55107C131.026 7.54264 131.032 7.53265 131.036 7.5217C131.041 7.51076 131.043 7.49908 131.042 7.48738V0.305844C131.043 0.293411 131.041 0.280891 131.037 0.269201C131.033 0.257511 131.026 0.246945 131.017 0.238282C131.008 0.229619 130.997 0.223077 130.985 0.219133C130.973 0.215189 130.96 0.213942 130.948 0.215487ZM128.526 6.23914H122.481V3.71925H128.526V6.23914Z" fill="#1D1D1B"/>
<path d="M97.1632 9.73053H94.8357C94.8235 9.73008 94.8114 9.73208 94.8 9.73642C94.7886 9.74076 94.7782 9.74735 94.7694 9.75578C94.7606 9.76422 94.7536 9.77433 94.7489 9.78552C94.7441 9.79671 94.7416 9.80873 94.7416 9.82089V11.6815H89.0689V9.82089C89.0681 9.79719 89.0582 9.77469 89.0414 9.75792C89.0246 9.74115 89.002 9.73136 88.9782 9.73053H86.6507C86.6266 9.73053 86.6036 9.74005 86.5865 9.757C86.5695 9.77394 86.56 9.79692 86.56 9.82089V14.6632C86.5505 14.8903 86.5893 15.1168 86.6738 15.3279C86.7583 15.5389 86.8866 15.7298 87.0503 15.888C87.2269 16.0484 87.4335 16.1723 87.6583 16.2527C87.8831 16.3331 88.1217 16.3684 88.3602 16.3565H97.1632C97.1867 16.3566 97.2093 16.3475 97.2262 16.3313C97.2431 16.3151 97.2531 16.2929 97.2539 16.2695V9.81085C97.2508 9.78895 97.2399 9.76887 97.2233 9.75417C97.2067 9.73947 97.1854 9.7311 97.1632 9.73053ZM94.7416 14.9979H89.0689V13.0302H94.7416V14.9979Z" fill="#1D1D1B"/>
<path d="M58.4145 7.83246C58.2768 7.7923 58.1458 7.74211 58.0081 7.69525C57.7913 7.63139 57.581 7.54736 57.38 7.44427C56.6393 7.05429 55.9973 6.50157 55.5026 5.82792C55.1469 5.35234 54.8816 4.81586 54.72 4.24504C54.5347 3.62866 54.4452 2.98762 54.4547 2.34424V1.94267H57.3868C57.4102 1.94268 57.4328 1.93362 57.4497 1.9174C57.4666 1.90117 57.4766 1.87904 57.4774 1.85566V0.694433C57.4766 0.671055 57.4666 0.648921 57.4497 0.632693C57.4328 0.616465 57.4102 0.607406 57.3868 0.607422H48.9901C48.9667 0.607406 48.9441 0.616465 48.9272 0.632693C48.9103 0.648921 48.9003 0.671055 48.8995 0.694433V1.85566C48.9003 1.87904 48.9103 1.90117 48.9272 1.9174C48.9441 1.93362 48.9667 1.94268 48.9901 1.94267H51.8987V2.35763C51.9054 3.00107 51.8148 3.64185 51.63 4.25843C51.4653 4.82745 51.2016 5.36321 50.8508 5.84131C50.3541 6.51438 49.7111 7.06693 48.97 7.45765C48.7687 7.56018 48.5585 7.64419 48.3419 7.70864C48.2076 7.75549 48.0732 7.80569 47.9355 7.84584C47.8885 7.84584 47.8818 7.89269 47.9187 7.92281L48.9465 8.78955C48.9901 8.82427 49.0454 8.84104 49.101 8.8364C49.9604 8.68007 50.7766 8.34356 51.4957 7.84919C52.2563 7.37579 52.8448 6.67214 53.175 5.84131C53.3799 6.5106 53.9945 7.24682 54.8375 7.84919C55.5569 8.34302 56.373 8.67948 57.2323 8.8364C57.29 8.84109 57.3474 8.82441 57.3935 8.78955L58.4011 7.92281C58.4716 7.87931 58.4615 7.8425 58.4145 7.83246Z" fill="#1D1D1B"/>
<path d="M0.352653 5.90117C0.308556 5.94521 0.308556 5.94521 0.352653 5.98925L4.1891 8.4997L5.29153 3.34668L0.352653 5.90117Z" fill="#E72511"/>
<path d="M22.9744 3.34668H22.0042C21.9601 3.34668 21.8719 3.34668 21.8278 3.39072L16.9772 5.90117C16.9331 5.90117 16.9331 5.94521 16.9772 5.98925L20.7254 8.45566C20.7695 8.4997 20.8577 8.4997 20.9018 8.4997H21.8719C21.916 8.4997 21.916 8.4997 21.8719 8.45566L18.0355 5.94521L22.9744 3.34668C23.0185 3.39072 23.0185 3.34668 22.9744 3.34668Z" fill="#F08300"/>
<path d="M20.9018 3.34668H14.1549L13.0525 8.4997H19.7993C19.8434 8.4997 19.8434 8.4997 19.7993 8.45566L15.9629 5.94521L20.9018 3.34668C20.9459 3.39072 20.9459 3.34668 20.9018 3.34668Z" fill="#E72511"/>
<path d="M25.0471 3.34668H24.077C24.0329 3.34668 23.9447 3.34668 23.9006 3.39072L19.0499 5.90117C19.0058 5.90117 19.0058 5.94521 19.0499 5.98925L22.7982 8.45566C22.8423 8.4997 22.9305 8.4997 22.9746 8.4997H23.9447C23.9888 8.4997 23.9888 8.4997 23.9447 8.45566L20.1082 5.94521L25.0471 3.34668C25.0912 3.39072 25.0912 3.34668 25.0471 3.34668Z" fill="#FABE00"/>
<path d="M20.5933 0H4.76242C3.88048 0 3.26312 0.572558 3.13083 1.2332C3.04263 1.62959 3.17492 1.93789 3.4836 2.20214L9.17213 5.94579L20.5933 0C20.6374 0 20.6374 0 20.5933 0Z" fill="#E72511"/>
<path d="M18.0797 11.8466L9.17206 5.94482L1.85194 9.68847C1.45506 9.90868 1.19048 10.261 1.10228 10.6134C0.969993 11.3181 1.36687 11.8906 2.24881 11.8906H18.0797C18.1238 11.8906 18.1238 11.8466 18.0797 11.8466Z" fill="#E72511"/>
<path d="M18.124 14.5774C18.0358 14.4453 17.9036 14.3572 17.7713 14.3132C17.639 14.2691 17.4626 14.2251 17.2421 14.2251C16.8452 14.2251 16.4924 14.3572 16.1838 14.5774C15.9192 14.8417 15.6987 15.15 15.6105 15.5904C15.5223 15.9868 15.5664 16.3392 15.7428 16.6034C15.9192 16.8677 16.1838 16.9998 16.6247 16.9998C16.8452 16.9998 17.0216 16.9558 17.198 16.9117C17.3744 16.8236 17.5508 16.7355 17.6831 16.6475C17.8154 16.5153 17.9477 16.3832 18.0358 16.207C18.124 16.0309 18.2122 15.8547 18.2563 15.6345C18.3004 15.4583 18.3004 15.2381 18.3004 15.106C18.2563 14.8417 18.2122 14.7096 18.124 14.5774ZM17.5508 15.9428C17.5067 16.0749 17.4185 16.163 17.3744 16.2511C17.2862 16.3392 17.198 16.4272 17.1098 16.4713C17.0216 16.5153 16.8893 16.5594 16.757 16.5594C16.6247 16.5594 16.5365 16.5153 16.4483 16.4713C16.3602 16.4272 16.3161 16.3392 16.272 16.2511C16.2279 16.163 16.2279 16.0749 16.2279 15.9428C16.2279 15.8106 16.2279 15.7226 16.272 15.5904C16.3161 15.4583 16.3161 15.3702 16.4043 15.2381C16.4483 15.15 16.5365 15.0179 16.6247 14.9298C16.7129 14.8417 16.8011 14.7536 16.8893 14.7096C16.9775 14.6655 17.1098 14.6215 17.2421 14.6215C17.3744 14.6215 17.4626 14.6655 17.5508 14.7096C17.639 14.7536 17.6831 14.8417 17.7272 14.9298C17.7713 15.0179 17.7713 15.106 17.8154 15.2381C17.8154 15.3702 17.8154 15.4583 17.7713 15.5904C17.639 15.7226 17.639 15.8106 17.5508 15.9428Z" fill="#E72511"/>
<path d="M5.02712 14.5774C4.93892 14.4453 4.85073 14.3572 4.67434 14.3132C4.54205 14.2691 4.36566 14.2251 4.14517 14.2251C3.7483 14.2251 3.39552 14.3572 3.08684 14.5774C2.82226 14.8417 2.60177 15.15 2.51358 15.5904C2.42539 15.9868 2.46948 16.3392 2.64587 16.6034C2.82226 16.8677 3.13094 16.9998 3.52781 16.9998C3.7483 16.9998 3.92469 16.9558 4.10108 16.9117C4.27746 16.8236 4.45385 16.7355 4.58614 16.6475C4.71844 16.5153 4.85073 16.3832 4.93892 16.207C5.02712 16.0309 5.11531 15.8547 5.15941 15.6345C5.2035 15.4583 5.2035 15.2381 5.2035 15.106C5.15941 14.8417 5.11531 14.7096 5.02712 14.5774ZM4.45385 15.9428C4.40976 16.0749 4.32156 16.163 4.27746 16.2511C4.18927 16.3392 4.10108 16.4272 4.01288 16.4713C3.92469 16.5153 3.7924 16.5594 3.6601 16.5594C3.52781 16.5594 3.43962 16.5153 3.35142 16.4713C3.26323 16.4272 3.21913 16.3392 3.17504 16.2511C3.08684 16.163 3.08684 16.0309 3.08684 15.9428C3.08684 15.8106 3.08684 15.7226 3.13094 15.5904C3.17504 15.4583 3.17504 15.3702 3.26323 15.2381C3.30733 15.15 3.39552 15.0179 3.48372 14.9298C3.57191 14.8417 3.6601 14.7536 3.7483 14.7096C3.83649 14.6655 3.96878 14.6215 4.10108 14.6215C4.23337 14.6215 4.32156 14.6655 4.40976 14.7096C4.49795 14.7536 4.54205 14.8417 4.58614 14.9298C4.63024 15.0179 4.63024 15.106 4.67434 15.2381C4.67434 15.3702 4.67434 15.4583 4.63024 15.5904C4.58614 15.7226 4.54205 15.8106 4.45385 15.9428Z" fill="#383838"/>
<path d="M20.3288 14.3132C20.3288 14.3132 20.1083 14.2691 20.0642 14.2691C19.9319 14.2251 19.7997 14.2251 19.7115 14.2251C19.5792 14.2251 19.4469 14.2251 19.3587 14.2691C19.2264 14.3132 19.1382 14.3572 19.0059 14.4013C18.9177 14.4894 18.8295 14.5334 18.7413 14.6655C18.6531 14.7536 18.609 14.8857 18.5649 15.0179C18.5208 15.15 18.5208 15.2381 18.5649 15.3262C18.5649 15.4143 18.609 15.5023 18.6972 15.5464C18.7413 15.5904 18.8295 15.6345 18.8736 15.6785C18.9177 15.7226 19.0059 15.7666 19.1382 15.8106C19.2705 15.8547 19.4028 15.9428 19.4469 15.9868C19.491 16.0309 19.5351 16.1189 19.491 16.207C19.4469 16.3392 19.4028 16.3832 19.2705 16.4713C19.05 16.6034 18.7854 16.5594 18.5649 16.5153C18.4767 16.4713 18.4326 16.4713 18.3885 16.4272C18.3885 16.4272 18.3885 16.4272 18.3444 16.4272C18.3444 16.4272 18.2122 16.8236 18.2122 16.8677V16.9117C18.2122 16.9117 18.3004 16.9117 18.3444 16.9558C18.5208 16.9998 18.6972 16.9998 18.8736 16.9998C19.0059 16.9998 19.1382 16.9998 19.2705 16.9558C19.4028 16.9117 19.5351 16.8677 19.6233 16.8236C19.7115 16.7796 19.8438 16.6915 19.8878 16.5594C19.976 16.4713 20.0201 16.3392 20.0642 16.207C20.1083 16.0749 20.1083 15.9868 20.0642 15.8987C20.0642 15.8106 20.0201 15.7226 19.9319 15.6785C19.8878 15.6345 19.7997 15.5904 19.7556 15.5464C19.7115 15.5023 19.6233 15.4583 19.491 15.4143C19.3587 15.3702 19.2264 15.2821 19.1823 15.2381C19.1382 15.194 19.0941 15.106 19.1382 15.0179C19.1382 14.9298 19.1823 14.8857 19.2264 14.8417C19.2705 14.7977 19.3146 14.7536 19.3587 14.7096C19.4028 14.6655 19.4469 14.6655 19.491 14.6655C19.6233 14.6215 19.7997 14.6655 19.976 14.7096L20.1524 14.7536H20.1965L20.3288 14.3132Z" fill="#E72511"/>
<path d="M15.4781 14.6655C15.434 14.5774 15.3899 14.4894 15.3018 14.4013C15.2136 14.3572 15.0813 14.3132 14.9931 14.2691C14.8608 14.2251 14.7285 14.2251 14.5962 14.2251H13.9347H13.8906L13.3174 16.8236V16.8677H13.8025C13.8025 16.8677 13.8465 16.8677 13.8465 16.8236L14.067 15.8987C14.4198 15.8987 14.7285 15.8547 14.8608 15.7666C14.949 15.7226 14.9931 15.7226 15.0813 15.6785C15.1695 15.6345 15.2577 15.5464 15.3458 15.4143C15.434 15.2821 15.4781 15.194 15.5222 15.0179C15.5222 14.9298 15.5222 14.7977 15.4781 14.6655ZM14.9049 15.106C14.8608 15.2381 14.8167 15.3702 14.6844 15.4143C14.6403 15.4583 14.4639 15.5023 14.1111 15.5023L14.2875 14.6655H14.4639C14.5962 14.6655 14.7285 14.7096 14.8167 14.7536C14.9049 14.8417 14.949 14.9298 14.9049 15.106Z" fill="#E72511"/>
<path d="M22.6658 14.6654L22.754 14.269H20.7256H20.6815L20.5933 14.6214V14.6654H21.2988L20.8137 16.8676V16.9116H21.2988C21.2988 16.9116 21.3429 16.9116 21.3429 16.8676L21.828 14.6654C21.828 14.6654 21.828 14.6654 21.8721 14.6654H22.6658Z" fill="#E72511"/>
<path d="M7.45241 14.5773C7.40832 14.4893 7.32012 14.4012 7.23193 14.3571C7.14373 14.3131 7.01144 14.269 6.87915 14.269C6.74686 14.269 6.57047 14.269 6.39408 14.269H5.86492H5.82082L5.24756 16.8676V16.9116H5.73263C5.73263 16.9116 5.77672 16.9116 5.77672 16.8676L5.99721 15.8105H6.1736C6.26179 15.8105 6.34999 15.8105 6.39408 15.8546C6.43818 15.8986 6.48228 15.9867 6.48228 16.0748L6.61457 16.8676C6.61457 16.8676 6.61457 16.9116 6.65867 16.9116H7.18783C7.18783 16.9116 7.23193 16.9116 7.18783 16.8676L7.01144 15.8546C7.01144 15.7665 6.96735 15.7225 6.92325 15.6784C6.87915 15.6344 6.83505 15.5903 6.79096 15.5903C6.96735 15.5463 7.09964 15.5022 7.23193 15.3701C7.36422 15.238 7.45241 15.1059 7.45241 14.9737C7.54061 14.7976 7.49651 14.6654 7.45241 14.5773ZM6.92325 15.0178C6.92325 15.1059 6.87915 15.1499 6.83506 15.1939C6.79096 15.238 6.74686 15.282 6.70276 15.282C6.65867 15.3261 6.57047 15.3261 6.52638 15.3261C6.48228 15.3261 6.39408 15.3261 6.30589 15.3261H6.1295L6.30589 14.6214H6.48228C6.57047 14.6214 6.61457 14.6214 6.70276 14.6214C6.74686 14.6214 6.83506 14.6654 6.87915 14.6654C6.92325 14.7095 6.96735 14.7095 6.96735 14.7535C6.92325 14.8856 6.92325 14.9737 6.92325 15.0178Z" fill="#383838"/>
<path d="M9.83361 14.269H8.29021H8.24611L7.67285 16.8676V16.9116H9.21625C9.21625 16.9116 9.26035 16.9116 9.26035 16.8676L9.34854 16.5152V16.4712H8.33431L8.5107 15.7225H9.43674H9.48083L9.56903 15.3701V15.3261H8.64299L8.77528 14.6654H9.70132C9.70132 14.6654 9.74542 14.6654 9.74542 14.6214L9.83361 14.269Z" fill="#383838"/>
<path d="M2.77812 14.2681H2.07256H2.02847L0.837845 15.4132L1.10243 14.3121H0.573263H0.529166L0 16.8666V16.9106H0.485068C0.485068 16.9106 0.529166 16.9106 0.529166 16.8666L0.793748 15.6774L1.4552 16.8666C1.4552 16.8666 1.45521 16.8666 1.4993 16.8666H2.16076L1.41111 15.5453L2.77812 14.2681Z" fill="#383838"/>
<path d="M11.7299 14.2691C11.7299 14.2691 11.6858 14.2691 11.7299 14.2691L11.2008 14.2251H11.1567L9.61328 16.8236H10.0983H10.1424L10.5834 16.0749L10.6275 16.0309H11.5095C11.5095 16.0309 11.5536 16.0309 11.5536 16.0749L11.6417 16.8236C11.6417 16.8236 11.6417 16.8677 11.6858 16.8677H12.1709C12.1709 16.8677 12.215 16.8677 12.1709 16.8236L11.7299 14.2691ZM10.8039 15.7226C10.8039 15.7226 10.8039 15.6785 10.8039 15.7226L11.289 14.8417L11.3772 15.7226V15.7666L10.8039 15.7226Z" fill="#383838"/>
</svg>
