<svg width="49" height="24" viewBox="0 0 49 24" fill="none" xmlns="http://www.w3.org/2000/svg">
<path d="M0.0699896 11.6858C-0.0172932 11.7295 -0.0260214 11.8167 0.0612613 11.8691L7.61995 16.8617L9.78456 6.67578L0.0699896 11.6858Z" fill="#E72410"/>
<path d="M44.8284 6.66895H42.9169C42.8209 6.66895 42.6638 6.70386 42.5765 6.75623L32.9929 11.6877C32.9056 11.7313 32.9056 11.8186 32.9841 11.871L40.4206 16.7676C40.5079 16.8199 40.6563 16.8636 40.7523 16.8636H42.6638C42.7598 16.8636 42.7685 16.8199 42.69 16.7676L35.1051 11.775L44.8546 6.75623C44.9419 6.70386 44.9331 6.66895 44.8284 6.66895Z" fill="#F08300"/>
<path d="M40.7349 6.66895H27.4156L25.251 16.8636H38.5703C38.6663 16.8636 38.6838 16.8199 38.5965 16.7676L31.0204 11.775L40.7524 6.75623C40.8397 6.70386 40.831 6.66895 40.7349 6.66895Z" fill="#E72410"/>
<path d="M48.9222 6.66895H47.0107C46.9147 6.66895 46.7575 6.70386 46.6703 6.75623L37.0866 11.6964C36.9993 11.7401 36.9993 11.8274 37.0779 11.8797L44.5144 16.7763C44.5929 16.8287 44.75 16.8723 44.8461 16.8723H46.7575C46.8536 16.8723 46.871 16.8287 46.7837 16.7763L39.1989 11.7837L48.9396 6.76496C49.0269 6.70386 49.0182 6.66895 48.9222 6.66895Z" fill="#FABE00"/>
<path d="M40.1416 0H8.78958C7.04392 0 5.81324 1.09976 5.5252 2.46137C5.3681 3.21201 5.6474 3.87535 6.22347 4.32923L17.4917 11.7657H17.5004L40.1677 0.0785545C40.255 0.0349131 40.2463 0 40.1416 0Z" fill="#E72410"/>
<path d="M35.1754 23.4353L17.5093 11.7656H17.5006L3.06404 19.2021C2.29595 19.656 1.72861 20.3193 1.5715 21.07C1.27474 22.4316 2.0341 23.5313 3.78848 23.5313H35.1404C35.2452 23.5313 35.2539 23.4877 35.1754 23.4353Z" fill="#E72410"/>
</svg>
