<svg width="20" height="20" viewBox="0 0 20 20" fill="none" xmlns="http://www.w3.org/2000/svg">
<path d="M16.0005 10H12.0005V11.5H16.0005V10Z" fill="#DD695D"/>
<path d="M16.0005 13H12.0005V14.5H16.0005V13Z" fill="#DD695D"/>
<path d="M18.0005 5H13.0005V2C13.0005 0.9 12.1005 0 11.0005 0H9.00049C7.90049 0 7.00049 0.9 7.00049 2V5H2.00049C0.900488 5 0.000488281 5.9 0.000488281 7V18C0.000488281 19.1 0.900488 20 2.00049 20H18.0005C19.1005 20 20.0005 19.1 20.0005 18V7C20.0005 5.9 19.1005 5 18.0005 5ZM9.00049 5V2H11.0005V5V7H9.00049V5ZM18.0005 18H2.00049V7H7.00049C7.00049 8.1 7.90049 9 9.00049 9H11.0005C12.1005 9 13.0005 8.1 13.0005 7H18.0005V18Z" fill="#DD695D"/>
<path d="M7 13C7.82843 13 8.5 12.3284 8.5 11.5C8.5 10.6716 7.82843 10 7 10C6.17157 10 5.5 10.6716 5.5 11.5C5.5 12.3284 6.17157 13 7 13Z" fill="#DD695D"/>
<path d="M9.08 14.18C8.44 13.9 7.74 13.75 7 13.75C6.26 13.75 5.56 13.9 4.92 14.18C4.36 14.42 4 14.96 4 15.57V16H10V15.57C10 14.96 9.64 14.42 9.08 14.18Z" fill="#DD695D"/>
</svg>
