<svg width="35" height="39" viewBox="0 0 35 39" fill="none" xmlns="http://www.w3.org/2000/svg">
<path d="M30.625 4.625H22.7875C22 2.45 19.9375 0.875 17.5 0.875C15.0625 0.875 13 2.45 12.2125 4.625H4.375C2.3125 4.625 0.625 6.3125 0.625 8.375V34.625C0.625 36.6875 2.3125 38.375 4.375 38.375H30.625C32.6875 38.375 34.375 36.6875 34.375 34.625V8.375C34.375 6.3125 32.6875 4.625 30.625 4.625ZM17.5 4.15625C17.9125 4.15625 18.2688 4.34375 18.5312 4.625C18.7563 4.86875 18.9062 5.20625 18.9062 5.5625C18.9062 6.33125 18.2687 6.96875 17.5 6.96875C16.7313 6.96875 16.0938 6.33125 16.0938 5.5625C16.0938 5.20625 16.2437 4.86875 16.4688 4.625C16.7312 4.34375 17.0875 4.15625 17.5 4.15625ZM30.625 34.625H4.375V8.375H30.625V34.625ZM17.5 10.25C14.4062 10.25 11.875 12.7812 11.875 15.875C11.875 18.9688 14.4062 21.5 17.5 21.5C20.5938 21.5 23.125 18.9688 23.125 15.875C23.125 12.7812 20.5938 10.25 17.5 10.25ZM17.5 17.75C16.4688 17.75 15.625 16.9062 15.625 15.875C15.625 14.8438 16.4688 14 17.5 14C18.5312 14 19.375 14.8438 19.375 15.875C19.375 16.9062 18.5312 17.75 17.5 17.75ZM6.25 29.8812V32.75H28.75V29.8812C28.75 25.1937 21.3062 23.1688 17.5 23.1688C13.6938 23.1688 6.25 25.175 6.25 29.8812ZM10.5813 29C11.875 27.95 15.0437 26.9 17.5 26.9C19.9562 26.9 23.1437 27.95 24.4187 29H10.5813Z" fill="white"/>
</svg>
