<svg width="39" height="23" viewBox="0 0 39 23" fill="none" xmlns="http://www.w3.org/2000/svg">
<path d="M35.75 22.875H26V16.375H21.645C19.7925 20.3075 15.795 22.875 11.375 22.875C5.1025 22.875 0 17.7725 0 11.5C0 5.2275 5.1025 0.125 11.375 0.125C15.795 0.125 19.7762 2.6925 21.645 6.625H39V16.375H35.75V22.875ZM29.25 19.625H32.5V13.125H35.75V9.875H19.4025L19.0287 8.78625C17.8913 5.5525 14.8038 3.375 11.375 3.375C6.89 3.375 3.25 7.015 3.25 11.5C3.25 15.985 6.89 19.625 11.375 19.625C14.8038 19.625 17.8913 17.4475 19.0287 14.2138L19.4025 13.125H29.25V19.625ZM11.375 16.375C8.69375 16.375 6.5 14.1813 6.5 11.5C6.5 8.81875 8.69375 6.625 11.375 6.625C14.0562 6.625 16.25 8.81875 16.25 11.5C16.25 14.1813 14.0562 16.375 11.375 16.375ZM11.375 9.875C10.4812 9.875 9.75 10.6063 9.75 11.5C9.75 12.3938 10.4812 13.125 11.375 13.125C12.2688 13.125 13 12.3938 13 11.5C13 10.6063 12.2688 9.875 11.375 9.875Z" fill="#DD695D"/>
</svg>
