<svg width="43" height="43" viewBox="0 0 43 43" fill="none" xmlns="http://www.w3.org/2000/svg">
<path d="M25.25 21.5L21.5 25.25L17.75 21.5L21.5 17.75L25.25 21.5ZM21.5 10.25L25.475 14.225L30.1625 9.5375L21.5 0.875L12.8375 9.5375L17.525 14.225L21.5 10.25ZM10.25 21.5L14.225 17.525L9.5375 12.8375L0.875 21.5L9.5375 30.1625L14.225 25.475L10.25 21.5ZM32.75 21.5L28.775 25.475L33.4625 30.1625L42.125 21.5L33.4625 12.8375L28.775 17.525L32.75 21.5ZM21.5 32.75L17.525 28.775L12.8375 33.4625L21.5 42.125L30.1625 33.4625L25.475 28.775L21.5 32.75Z" fill="white"/>
</svg>
