<svg width="72" height="35" viewBox="0 0 72 35" fill="none" xmlns="http://www.w3.org/2000/svg">
<path d="M0.102597 17.3815C-0.0256542 17.4464 -0.0384793 17.5762 0.0897715 17.6541L11.1963 25.0799L14.3769 9.92969L0.102597 17.3815Z" fill="#DD695D"/>
<path d="M65.8698 9.91797H63.0611C62.92 9.91797 62.6891 9.9699 62.5609 10.0478L48.479 17.3827C48.3507 17.4476 48.3507 17.5775 48.4661 17.6554L59.3931 24.9384C59.5214 25.0163 59.7394 25.0812 59.8805 25.0812H62.6891C62.8302 25.0812 62.843 25.0163 62.7276 24.9384L51.5826 17.5126L65.9082 10.0478C66.0365 9.9699 66.0237 9.91797 65.8698 9.91797Z" fill="#F08300"/>
<path d="M59.8547 9.91797H40.2836L37.103 25.0812H56.6741C56.8152 25.0812 56.8408 25.0163 56.7126 24.9384L45.5804 17.5126L59.8804 10.0478C60.0086 9.9699 59.9958 9.91797 59.8547 9.91797Z" fill="#DD695D"/>
<path d="M71.8847 9.91797H69.076C68.9349 9.91797 68.704 9.9699 68.5758 10.0478L54.4939 17.3957C54.3656 17.4606 54.3656 17.5904 54.481 17.6683L65.408 24.9514C65.5234 25.0292 65.7543 25.0942 65.8954 25.0942H68.704C68.8451 25.0942 68.8708 25.0292 68.7425 24.9514L57.5975 17.5255L71.9103 10.0608C72.0386 9.9699 72.0257 9.91797 71.8847 9.91797Z" fill="#FABE00"/>
<path d="M58.9825 0H12.9148C10.3498 0 8.5415 1.63576 8.11827 3.66098C7.88742 4.77745 8.29782 5.7641 9.14428 6.43917L25.7015 17.5H25.7143L59.021 0.11684C59.1493 0.0519288 59.1364 0 58.9825 0Z" fill="#DD695D"/>
<path d="M51.685 34.8572L25.727 17.5H25.7142L4.50154 28.5608C3.37294 29.2359 2.53931 30.2226 2.30845 31.339C1.8724 33.3642 2.98818 35 5.56602 35H51.6337C51.7876 35 51.8004 34.9351 51.685 34.8572Z" fill="#DD695D"/>
</svg>
