<svg width="39" height="35" viewBox="0 0 39 35" fill="none" xmlns="http://www.w3.org/2000/svg">
<path d="M36.375 17.9125C36.375 7.61875 28.3875 0.625 19.5 0.625C10.7063 0.625 2.625 7.46875 2.625 18.025C1.5 18.6625 0.75 19.8625 0.75 21.25V25C0.75 27.0625 2.4375 28.75 4.5 28.75H6.375V17.3125C6.375 10.0562 12.2438 4.1875 19.5 4.1875C26.7563 4.1875 32.625 10.0562 32.625 17.3125V30.625H17.625V34.375H32.625C34.6875 34.375 36.375 32.6875 36.375 30.625V28.3375C37.4813 27.7563 38.25 26.6125 38.25 25.2625V20.95C38.25 19.6375 37.4813 18.4937 36.375 17.9125Z" fill="white"/>
<path d="M13.875 21.25C14.9105 21.25 15.75 20.4105 15.75 19.375C15.75 18.3395 14.9105 17.5 13.875 17.5C12.8395 17.5 12 18.3395 12 19.375C12 20.4105 12.8395 21.25 13.875 21.25Z" fill="white"/>
<path d="M25.125 21.25C26.1605 21.25 27 20.4105 27 19.375C27 18.3395 26.1605 17.5 25.125 17.5C24.0895 17.5 23.25 18.3395 23.25 19.375C23.25 20.4105 24.0895 21.25 25.125 21.25Z" fill="white"/>
<path d="M30.7499 15.6812C29.8499 10.3375 25.1999 6.25 19.5936 6.25C13.9124 6.25 7.79988 10.9562 8.28738 18.3438C12.9186 16.45 16.4061 12.325 17.3999 7.3C19.8561 12.2313 24.8999 15.625 30.7499 15.6812Z" fill="white"/>
</svg>
