<svg width="29" height="24" viewBox="0 0 29 24" fill="none" xmlns="http://www.w3.org/2000/svg">
<path d="M3 9.75C1.755 9.75 0.75 10.755 0.75 12C0.75 13.245 1.755 14.25 3 14.25C4.245 14.25 5.25 13.245 5.25 12C5.25 10.755 4.245 9.75 3 9.75ZM3 0.75C1.755 0.75 0.75 1.755 0.75 3C0.75 4.245 1.755 5.25 3 5.25C4.245 5.25 5.25 4.245 5.25 3C5.25 1.755 4.245 0.75 3 0.75ZM3 18.75C1.755 18.75 0.75 19.77 0.75 21C0.75 22.23 1.77 23.25 3 23.25C4.23 23.25 5.25 22.23 5.25 21C5.25 19.77 4.245 18.75 3 18.75ZM7.5 22.5H28.5V19.5H7.5V22.5ZM7.5 13.5H28.5V10.5H7.5V13.5ZM7.5 1.5V4.5H28.5V1.5H7.5Z" fill="#DD695D"/>
</svg>
