<svg width="199" height="40" viewBox="0 0 199 40" fill="none" xmlns="http://www.w3.org/2000/svg">
<g clip-path="url(#clip0)">
<path d="M0.0699896 19.6858C-0.0172932 19.7295 -0.0260214 19.8167 0.0612613 19.8691L7.61995 24.8617L9.78456 14.6758L0.0699896 19.6858Z" fill="#E72410"/>
<path d="M44.8287 14.6689H42.9172C42.8211 14.6689 42.664 14.7039 42.5768 14.7562L32.9931 19.6877C32.9058 19.7313 32.9058 19.8186 32.9844 19.871L40.4209 24.7676C40.5082 24.8199 40.6565 24.8636 40.7525 24.8636H42.664C42.7601 24.8636 42.7688 24.8199 42.6902 24.7676L35.1054 19.775L44.8548 14.7562C44.9421 14.7039 44.9334 14.6689 44.8287 14.6689Z" fill="#F08300"/>
<path d="M40.7349 14.6689H27.4156L25.251 24.8636H38.5703C38.6663 24.8636 38.6838 24.8199 38.5965 24.7676L31.0204 19.775L40.7524 14.7562C40.8397 14.7039 40.831 14.6689 40.7349 14.6689Z" fill="#E72410"/>
<path d="M48.9222 14.6689H47.0107C46.9147 14.6689 46.7575 14.7039 46.6703 14.7562L37.0866 19.6964C36.9993 19.7401 36.9993 19.8274 37.0779 19.8797L44.5144 24.7763C44.5929 24.8287 44.75 24.8723 44.8461 24.8723H46.7575C46.8536 24.8723 46.871 24.8287 46.7837 24.7763L39.1989 19.7837L48.9396 14.765C49.0269 14.7039 49.0182 14.6689 48.9222 14.6689Z" fill="#FABE00"/>
<path d="M40.1416 8H8.78958C7.04392 8 5.81324 9.09976 5.5252 10.4614C5.3681 11.212 5.6474 11.8754 6.22347 12.3292L17.4917 19.7657H17.5004L40.1677 8.07855C40.255 8.03491 40.2463 8 40.1416 8Z" fill="#E72410"/>
<path d="M35.1751 31.4353L17.5091 19.7656H17.5004L3.06379 27.2021C2.2957 27.656 1.72837 28.3193 1.57126 29.07C1.27449 30.4316 2.03385 31.5313 3.78824 31.5313H35.1402C35.2449 31.5313 35.2537 31.4877 35.1751 31.4353Z" fill="#E72410"/>
<path d="M67.076 13.38C69.914 13.38 71.784 14.348 71.784 15.954C71.784 17.582 69.914 18.55 67.076 18.55C64.216 18.55 62.346 17.582 62.346 15.954C62.346 14.348 64.216 13.38 67.076 13.38ZM67.076 20.376C71.256 20.376 74.116 18.66 74.116 15.954C74.116 13.27 71.256 11.554 67.076 11.554C62.874 11.554 60.014 13.27 60.014 15.954C60.014 18.66 62.874 20.376 67.076 20.376ZM76.118 22.07H58.1V23.94H65.91V30.694H68.176V23.94H76.118V22.07ZM84.3223 16.196H87.7323V14.326H84.3223V11.51H82.1663V14.326H78.7343V16.196H82.1663V16.9C82.1663 20.068 80.8463 23.456 78.1183 25.062L79.4163 26.778C81.3083 25.678 82.5623 23.676 83.2663 21.344C83.9923 23.5 85.2683 25.326 87.1383 26.338L88.3923 24.644C85.6643 23.17 84.3223 20.002 84.3223 16.9V16.196ZM89.1403 18.528H86.4563V20.376H89.1403V29.726H91.2743V11.224H89.1403V18.528ZM93.1443 10.828V30.694H95.3003V10.828H93.1443ZM116.595 20.552V18.726H113.911C114.351 16.46 114.351 14.744 114.351 13.248V11.73H100.843V13.556H112.129C112.129 14.986 112.085 16.592 111.645 18.726H98.5986V20.552H106.431V23.808H100.425V25.634H112.173V30.694H114.439V23.808H108.719V20.552H116.595ZM127.769 29C124.777 29 123.215 28.516 123.215 27.46C123.215 26.448 124.777 25.942 127.769 25.942C130.783 25.942 132.345 26.448 132.345 27.46C132.345 28.516 130.783 29 127.769 29ZM127.769 24.27C123.457 24.27 120.927 25.37 120.927 27.46C120.927 29.572 123.457 30.694 127.769 30.694C132.103 30.694 134.611 29.572 134.611 27.46C134.611 25.37 132.103 24.27 127.769 24.27ZM128.935 21.212V19.584H134.765V17.846H123.369V16.306H134.149V14.612H123.369V13.116H134.633V11.378H121.103V19.584H126.647V21.212H118.793V23.038H136.767V21.212H128.935ZM150.823 12.72H146.093V10.652H143.827V12.72H139.097V14.546H150.823V12.72ZM142.309 18.77C142.309 17.648 143.365 16.966 144.949 16.966C146.533 16.966 147.611 17.648 147.611 18.77C147.611 19.914 146.533 20.596 144.949 20.596C143.365 20.596 142.309 19.914 142.309 18.77ZM149.767 18.77C149.767 16.68 147.831 15.272 144.949 15.272C142.089 15.272 140.131 16.68 140.131 18.77C140.131 20.882 142.089 22.29 144.949 22.29C147.831 22.29 149.767 20.882 149.767 18.77ZM152.341 28.648H144.135V26.822H152.341V28.648ZM152.341 25.062H144.135V23.236H141.891V30.452H154.585V23.236H152.341V25.062ZM157.401 15.778H154.585V10.828H152.319V22.422H154.585V17.648H157.401V15.778ZM165.979 14.436H170.555V20.552H165.979V14.436ZM169.389 26.47V22.378H175.681V20.552H172.799V14.436H175.725V12.61H160.787V14.436H163.713V20.552H160.853V22.378H167.123V26.47H159.291V28.34H177.331V26.47H169.389ZM193.72 21.454H196.008V10.806H193.72V15.228H190.288V17.032H193.72V21.454ZM190.42 18.594C188.044 18.99 186.02 19.056 182.764 19.056V17.208H188.99V15.492H182.764V13.776H189.562V11.994H180.498V20.838H181.994C185.756 20.838 187.978 20.816 190.596 20.398L190.42 18.594ZM185.338 28.758V27.152H196.008V22.268H183.072V24.028H193.764V25.524H183.094V30.518H196.668V28.758H185.338Z" fill="#383838"/>
</g>
<defs>
<clipPath id="clip0">
<rect width="199" height="40" fill="white"/>
</clipPath>
</defs>
</svg>
