<svg width="28" height="28" viewBox="0 0 28 28" fill="none" xmlns="http://www.w3.org/2000/svg">
<path d="M18.5 27.5H15.5V24.5H18.5V27.5ZM15.5 17H12.5V24.5H15.5V17ZM27.5 14H24.5V20H27.5V14ZM24.5 11H21.5V14H24.5V11ZM6.5 14H3.5V17H6.5V14ZM3.5 11H0.5V14H3.5V11ZM14 3.5H17V0.5H14V3.5ZM2.75 2.75V7.25H7.25V2.75H2.75ZM9.5 9.5H0.5V0.5H9.5V9.5ZM2.75 20.75V25.25H7.25V20.75H2.75ZM9.5 27.5H0.5V18.5H9.5V27.5ZM20.75 2.75V7.25H25.25V2.75H20.75ZM27.5 9.5H18.5V0.5H27.5V9.5ZM24.5 24.5V20H18.5V23H21.5V27.5H27.5V24.5H24.5ZM21.5 14H15.5V17H21.5V14ZM15.5 11H6.5V14H9.5V17H12.5V14H15.5V11ZM17 9.5V6.5H14V3.5H11V9.5H17ZM6.125 3.875H3.875V6.125H6.125V3.875ZM6.125 21.875H3.875V24.125H6.125V21.875ZM24.125 3.875H21.875V6.125H24.125V3.875Z" fill="#DD695D"/>
</svg>
