<svg width="173" height="183" viewBox="0 0 173 183" fill="none" xmlns="http://www.w3.org/2000/svg">
<path d="M17.3928 174.25H8.66777V172.3H17.3928V174.25ZM17.3928 169.775H8.66777V167.725H5.41777V176.85H20.6678V167.725H17.3928V169.775ZM10.0428 163.45H5.66777V160.725H10.0428V163.45ZM17.3678 154.125V159.375H13.2678V155.3H10.0428V158.2H5.66777V155.3H2.39277V166.075H13.2678V162.025H17.3678V166.75H20.6678V154.125H17.3678ZM43.5408 154.15H40.2158V170.675H43.5408V154.15ZM27.9658 161.45C27.9658 159.55 29.3158 158.45 31.0158 158.45C32.7408 158.45 34.0408 159.55 34.0408 161.45C34.0408 163.3 32.7408 164.425 31.0158 164.425C29.3158 164.425 27.9658 163.3 27.9658 161.45ZM37.2658 161.45C37.2658 158.05 34.5408 155.6 31.0158 155.6C27.4908 155.6 24.7408 158.05 24.7408 161.45C24.7408 164.8 27.4908 167.275 31.0158 167.275C34.5408 167.275 37.2658 164.8 37.2658 161.45ZM31.5158 174.125V169.05H28.2158V176.75H44.1158V174.125H31.5158ZM55.0779 163.875C59.4279 163.475 62.2529 161.875 63.4779 159.675C64.6779 161.875 67.5279 163.475 71.8529 163.875L73.0029 161.3C68.6279 160.925 66.3779 159.4 65.8529 157.825H72.0029V155.2H54.9779V157.825H61.1029C60.5779 159.4 58.3279 160.925 53.9779 161.3L55.0779 163.875ZM63.4279 174.625C60.3529 174.625 58.7779 174.075 58.7779 172.875C58.7779 171.675 60.3529 171.15 63.4279 171.15C66.5029 171.15 68.0779 171.675 68.0779 172.875C68.0779 174.075 66.5029 174.625 63.4279 174.625ZM63.4279 168.6C58.4529 168.6 55.4529 170.175 55.4529 172.875C55.4529 175.6 58.4529 177.175 63.4279 177.175C68.4029 177.175 71.4279 175.6 71.4279 172.875C71.4279 170.175 68.4029 168.6 63.4279 168.6ZM53.0779 164.75V167.35H73.8779V164.75H53.0779ZM84.651 163.775H80.276V158.4H84.651V163.775ZM92.026 160.075V162.05H87.876V160.075H92.026ZM87.876 164.675H92.026V167.625H95.326V154.125H92.026V157.45H87.876V155.775H77.026V166.375H87.876V164.675ZM87.526 174.625C84.526 174.625 82.951 174 82.951 172.675C82.951 171.35 84.526 170.725 87.526 170.725C90.551 170.725 92.126 171.35 92.126 172.675C92.126 174 90.551 174.625 87.526 174.625ZM87.526 168.2C82.651 168.2 79.651 169.85 79.651 172.675C79.651 175.5 82.651 177.15 87.526 177.15C92.426 177.15 95.426 175.5 95.426 172.675C95.426 169.85 92.426 168.2 87.526 168.2ZM107.724 155.9H104.399V159.225C104.399 163.6 102.649 168.075 98.749 169.875L100.799 172.525C103.374 171.225 105.099 168.825 106.099 165.875C107.049 168.65 108.724 170.9 111.249 172.125L113.199 169.5C109.399 167.8 107.724 163.575 107.724 159.225V155.9ZM115.099 154.1V161.325H110.674V163.975H115.099V177.2H118.399V154.1H115.099ZM146.861 154.15H143.536V170.675H146.861V154.15ZM131.286 161.45C131.286 159.55 132.636 158.45 134.336 158.45C136.061 158.45 137.361 159.55 137.361 161.45C137.361 163.3 136.061 164.425 134.336 164.425C132.636 164.425 131.286 163.3 131.286 161.45ZM140.586 161.45C140.586 158.05 137.861 155.6 134.336 155.6C130.811 155.6 128.061 158.05 128.061 161.45C128.061 164.8 130.811 167.275 134.336 167.275C137.861 167.275 140.586 164.8 140.586 161.45ZM134.836 174.125V169.05H131.536V176.75H147.436V174.125H134.836ZM152.734 163.875C157.084 163.475 159.909 161.875 161.134 159.675C162.334 161.875 165.184 163.475 169.509 163.875L170.659 161.3C166.284 160.925 164.034 159.4 163.509 157.825H169.659V155.2H152.634V157.825H158.759C158.234 159.4 155.984 160.925 151.634 161.3L152.734 163.875ZM161.084 174.625C158.009 174.625 156.434 174.075 156.434 172.875C156.434 171.675 158.009 171.15 161.084 171.15C164.159 171.15 165.734 171.675 165.734 172.875C165.734 174.075 164.159 174.625 161.084 174.625ZM161.084 168.6C156.109 168.6 153.109 170.175 153.109 172.875C153.109 175.6 156.109 177.175 161.084 177.175C166.059 177.175 169.084 175.6 169.084 172.875C169.084 170.175 166.059 168.6 161.084 168.6ZM150.734 164.75V167.35H171.534V164.75H150.734Z" fill="#383838"/>
<path d="M11 49.2891V111.13C11 118.782 17.304 124.999 25.0868 124.999H146.913C154.685 124.999 161 118.793 161 111.13V49.2891H11Z" fill="#EAEAEA"/>
<path d="M140.729 108.816H96.742C93.4173 108.816 90.7295 106.169 90.7295 102.896C90.7295 99.6228 93.4173 96.9766 96.742 96.9766H140.74C144.065 96.9766 146.753 99.6228 146.753 102.896C146.742 106.159 144.054 108.816 140.729 108.816Z" fill="#ED1E1B"/>
<path d="M146.913 15.4424H25.0868C17.304 15.4424 11 21.6488 11 29.3006V49.2908H160.989V29.3006C160.989 21.6488 154.685 15.4424 146.913 15.4424ZM109.532 29.3537C109.532 32.4994 106.941 35.0606 103.735 35.0606H68.2539C65.0587 35.0606 62.4572 32.5101 62.4572 29.3537C62.4572 26.208 65.0479 23.6468 68.2539 23.6468H103.746C106.941 23.6468 109.532 26.208 109.532 29.3537Z" fill="#ED1E1B"/>
<path d="M49.8602 112.662C64.4244 112.662 76.2311 101.038 76.2311 86.6987C76.2311 72.3598 64.4244 60.7358 49.8602 60.7358C35.2959 60.7358 23.4893 72.3598 23.4893 86.6987C23.4893 101.038 35.2959 112.662 49.8602 112.662Z" fill="white"/>
<path d="M49.8596 88.5172C55.5649 88.5172 60.1899 83.9637 60.1899 78.3467C60.1899 72.7297 55.5649 68.1763 49.8596 68.1763C44.1543 68.1763 39.5293 72.7297 39.5293 78.3467C39.5293 83.9637 44.1543 88.5172 49.8596 88.5172Z" fill="#ED1E1B"/>
<path d="M49.8596 107.934C42.9728 107.934 36.7983 104.862 32.6641 100.048C34.8661 95.9564 39.1947 93.1401 44.2249 93.1401C44.5056 93.1401 44.7862 93.1826 45.0561 93.2677C46.5781 93.7565 48.1757 94.0647 49.8596 94.0647C51.5436 94.0647 53.152 93.7565 54.6632 93.2677C54.9331 93.1826 55.2137 93.1401 55.4944 93.1401C60.5354 93.1401 64.8532 95.9564 67.0552 100.048C62.921 104.852 56.7465 107.934 49.8596 107.934Z" fill="#ED1E1B"/>
<path d="M160.989 45.646H11V49.2912H160.989V45.646Z" fill="white"/>
<path d="M103.693 104.819L104.222 103.862L104.751 104.819L105.571 104.33L105.042 103.373H106.111V102.406H105.042L105.571 101.45L104.762 100.961L104.233 101.917L103.693 100.961L102.873 101.45L103.402 102.406H102.333V103.373H103.402L102.873 104.33L103.693 104.819ZM108.874 104.33L109.695 104.819L110.224 103.862L110.753 104.819L111.573 104.33L111.044 103.373H112.113V102.406H111.044L111.573 101.45L110.753 100.961L110.224 101.917L109.684 100.961L108.864 101.45L109.393 102.406H108.324V103.373H109.393L108.874 104.33ZM118.104 102.406H117.035L117.564 101.45L116.754 100.961L116.225 101.917L115.686 100.961L114.865 101.45L115.394 102.406H114.326V103.373H115.394L114.865 104.33L115.686 104.819L116.215 103.862L116.744 104.819L117.564 104.33L117.035 103.373H118.104V102.406Z" fill="white"/>
<path d="M121.688 104.818L122.217 103.862L122.746 104.818L123.566 104.329L123.037 103.373H124.106V102.406H123.037L123.566 101.449L122.757 100.96L122.228 101.917L121.699 100.96L120.879 101.449L121.408 102.406H120.339V103.373H121.408L120.879 104.329L121.688 104.818ZM126.384 104.329L127.204 104.818L127.733 103.862L128.262 104.818L129.082 104.329L128.553 103.373H129.622V102.406H128.553L129.082 101.449L128.262 100.96L127.733 101.917L127.204 100.96L126.384 101.449L126.913 102.406H125.844V103.373H126.913L126.384 104.329ZM135.127 102.406H134.059L134.588 101.449L133.778 100.96L133.249 101.917L132.72 100.96L131.9 101.449L132.429 102.406H131.36V103.373H132.429L131.9 104.329L132.72 104.818L133.249 103.862L133.778 104.818L134.598 104.329L134.069 103.373H135.138V102.406H135.127Z" fill="white"/>
<path d="M90.0042 77.1023C89.8963 77.1554 89.8963 77.2511 89.9934 77.3148L98.8989 83.1068L101.446 71.2891L90.0042 77.1023Z" fill="#F11E14"/>
<path d="M142.714 71.2891H140.458C140.34 71.2891 140.156 71.3316 140.059 71.3847L128.779 77.1129C128.671 77.166 128.671 77.2617 128.768 77.3255L137.522 83.0005C137.619 83.0643 137.792 83.1174 137.911 83.1174H140.167C140.286 83.1174 140.296 83.0643 140.199 83.0005L131.261 77.2086L142.736 71.3847C142.844 71.3316 142.833 71.2891 142.714 71.2891Z" fill="#F8810F"/>
<path d="M137.888 71.2891H122.204L119.656 83.1068H135.341C135.459 83.1068 135.47 83.0536 135.373 82.9899L126.457 77.1979L137.92 71.3741C138.018 71.3316 138.007 71.2891 137.888 71.2891Z" fill="#F11E14"/>
<path d="M147.528 71.2891H145.272C145.153 71.2891 144.98 71.3316 144.872 71.3847L133.581 77.1129C133.484 77.166 133.473 77.2617 133.571 77.3255L142.325 83.0005C142.422 83.0643 142.595 83.1174 142.714 83.1174H144.97C145.088 83.1174 145.099 83.0643 145.002 83.0005L136.075 77.2086L147.549 71.3847C147.657 71.3316 147.647 71.2891 147.528 71.2891Z" fill="#FFBE19"/>
<path d="M137.198 63.5532H100.281C98.2196 63.5532 96.7731 64.8285 96.4385 66.412C96.255 67.2835 96.5896 68.0486 97.2589 68.58L110.525 77.1989H110.536L137.22 63.6489C137.328 63.6064 137.317 63.5532 137.198 63.5532Z" fill="#F11E14"/>
<path d="M131.348 90.727L110.536 77.1982H110.525L93.5345 85.8277C92.6277 86.3485 91.9693 87.1243 91.7858 87.9957C91.4403 89.5686 92.3255 90.8439 94.3872 90.8439H131.304C131.423 90.8439 131.445 90.7908 131.348 90.727Z" fill="#F11E14"/>
<path d="M70.1219 113.457C77.1209 113.457 82.7946 107.871 82.7946 100.981C82.7946 94.0899 77.1209 88.5039 70.1219 88.5039C63.123 88.5039 57.4492 94.0899 57.4492 100.981C57.4492 107.871 63.123 113.457 70.1219 113.457Z" fill="white"/>
<path d="M77.3759 98.7501C77.3759 101.46 75.1415 103.66 72.3889 103.66C72.0758 103.66 71.7628 103.628 71.4606 103.575L70.7805 104.33C70.651 104.468 70.4675 104.553 70.2732 104.553H69.2153V105.669C69.2153 106.041 68.9131 106.338 68.5353 106.338H67.4018V107.454C67.4018 107.826 67.0996 108.124 66.7218 108.124H63.5482C63.1704 108.124 62.8682 107.826 62.8682 107.454V105.275C62.8682 105.095 62.9437 104.925 63.0625 104.797L67.6501 100.28C67.4882 99.7916 67.4018 99.2815 67.4018 98.7395C67.4018 96.0295 69.6363 93.8296 72.3889 93.8296C75.1523 93.8402 77.3759 96.0401 77.3759 98.7501ZM71.1691 98.155C71.1691 99.2071 72.0435 100.068 73.1121 100.068C74.1808 100.068 75.0551 99.2071 75.0551 98.155C75.0551 97.1028 74.1808 96.242 73.1121 96.242C72.0435 96.242 71.1691 97.0922 71.1691 98.155Z" fill="#ED1E1B"/>
<path d="M93.9554 29.353H78.0336C72.971 29.353 68.8799 25.3146 68.8799 20.3409V9.01207C68.8799 4.03843 72.9818 0 78.0336 0H93.9554C99.018 0 103.109 4.03843 103.109 9.01207V20.3303C103.12 25.3146 99.018 29.353 93.9554 29.353Z" fill="#A51512"/>
</svg>
