<svg width="50" height="50" viewBox="0 0 50 50" fill="none" xmlns="http://www.w3.org/2000/svg">
<path d="M39.3333 6.25016H30.625C29.75 3.8335 27.4583 2.0835 24.75 2.0835C22.0417 2.0835 19.75 3.8335 18.875 6.25016H10.1667C7.875 6.25016 6 8.12516 6 10.4168V39.5835C6 41.8752 7.875 43.7502 10.1667 43.7502H39.3333C41.625 43.7502 43.5 41.8752 43.5 39.5835V10.4168C43.5 8.12516 41.625 6.25016 39.3333 6.25016ZM24.75 5.72933C25.2083 5.72933 25.6042 5.93766 25.8958 6.25016C26.1458 6.521 26.3125 6.896 26.3125 7.29183C26.3125 8.146 25.6042 8.85433 24.75 8.85433C23.8958 8.85433 23.1875 8.146 23.1875 7.29183C23.1875 6.896 23.3542 6.521 23.6042 6.25016C23.8958 5.93766 24.2917 5.72933 24.75 5.72933ZM39.3333 39.5835H10.1667V10.4168H39.3333V39.5835ZM24.75 12.5002C21.3125 12.5002 18.5 15.3127 18.5 18.7502C18.5 22.1877 21.3125 25.0002 24.75 25.0002C28.1875 25.0002 31 22.1877 31 18.7502C31 15.3127 28.1875 12.5002 24.75 12.5002ZM24.75 20.8335C23.6042 20.8335 22.6667 19.896 22.6667 18.7502C22.6667 17.6043 23.6042 16.6668 24.75 16.6668C25.8958 16.6668 26.8333 17.6043 26.8333 18.7502C26.8333 19.896 25.8958 20.8335 24.75 20.8335ZM12.25 34.3127V37.5002H37.25V34.3127C37.25 29.1043 28.9792 26.8543 24.75 26.8543C20.5208 26.8543 12.25 29.0835 12.25 34.3127ZM17.0625 33.3335C18.5 32.1668 22.0208 31.0002 24.75 31.0002C27.4792 31.0002 31.0208 32.1668 32.4375 33.3335H17.0625Z" fill="#BABABA"/>
<path d="M39.3333 6.24967H30.625C29.75 3.83301 27.4583 2.08301 24.75 2.08301C22.0417 2.08301 19.75 3.83301 18.875 6.24967H10.1667C7.875 6.24967 6 8.12467 6 10.4163V39.583C6 41.8747 7.875 43.7497 10.1667 43.7497H39.3333C41.625 43.7497 43.5 41.8747 43.5 39.583V10.4163C43.5 8.12467 41.625 6.24967 39.3333 6.24967ZM24.75 5.72884C25.2083 5.72884 25.6042 5.93717 25.8958 6.24967C26.1458 6.52051 26.3125 6.89551 26.3125 7.29134C26.3125 8.14551 25.6042 8.85384 24.75 8.85384C23.8958 8.85384 23.1875 8.14551 23.1875 7.29134C23.1875 6.89551 23.3542 6.52051 23.6042 6.24967C23.8958 5.93717 24.2917 5.72884 24.75 5.72884ZM39.3333 39.583H10.1667V10.4163H39.3333V39.583ZM24.75 12.4997C21.3125 12.4997 18.5 15.3122 18.5 18.7497C18.5 22.1872 21.3125 24.9997 24.75 24.9997C28.1875 24.9997 31 22.1872 31 18.7497C31 15.3122 28.1875 12.4997 24.75 12.4997ZM24.75 20.833C23.6042 20.833 22.6667 19.8955 22.6667 18.7497C22.6667 17.6038 23.6042 16.6663 24.75 16.6663C25.8958 16.6663 26.8333 17.6038 26.8333 18.7497C26.8333 19.8955 25.8958 20.833 24.75 20.833ZM12.25 34.3122V37.4997H37.25V34.3122C37.25 29.1038 28.9792 26.8538 24.75 26.8538C20.5208 26.8538 12.25 29.083 12.25 34.3122ZM17.0625 33.333C18.5 32.1663 22.0208 30.9997 24.75 30.9997C27.4792 30.9997 31.0208 32.1663 32.4375 33.333H17.0625Z" fill="#BABABA"/>
<mask id="mask0" style="mask-type:alpha" maskUnits="userSpaceOnUse" x="6" y="2" width="38" height="42">
<path d="M39.3333 6.2487H30.625C29.75 3.83203 27.4583 2.08203 24.75 2.08203C22.0417 2.08203 19.75 3.83203 18.875 6.2487H10.1667C7.875 6.2487 6 8.1237 6 10.4154V39.582C6 41.8737 7.875 43.7487 10.1667 43.7487H39.3333C41.625 43.7487 43.5 41.8737 43.5 39.582V10.4154C43.5 8.1237 41.625 6.2487 39.3333 6.2487ZM24.75 5.72786C25.2083 5.72786 25.6042 5.9362 25.8958 6.2487C26.1458 6.51953 26.3125 6.89453 26.3125 7.29037C26.3125 8.14453 25.6042 8.85287 24.75 8.85287C23.8958 8.85287 23.1875 8.14453 23.1875 7.29037C23.1875 6.89453 23.3542 6.51953 23.6042 6.2487C23.8958 5.9362 24.2917 5.72786 24.75 5.72786ZM39.3333 39.582H10.1667V10.4154H39.3333V39.582ZM24.75 12.4987C21.3125 12.4987 18.5 15.3112 18.5 18.7487C18.5 22.1862 21.3125 24.9987 24.75 24.9987C28.1875 24.9987 31 22.1862 31 18.7487C31 15.3112 28.1875 12.4987 24.75 12.4987ZM24.75 20.832C23.6042 20.832 22.6667 19.8945 22.6667 18.7487C22.6667 17.6029 23.6042 16.6654 24.75 16.6654C25.8958 16.6654 26.8333 17.6029 26.8333 18.7487C26.8333 19.8945 25.8958 20.832 24.75 20.832ZM12.25 34.3112V37.4987H37.25V34.3112C37.25 29.1029 28.9792 26.8529 24.75 26.8529C20.5208 26.8529 12.25 29.082 12.25 34.3112ZM17.0625 33.332C18.5 32.1654 22.0208 30.9987 24.75 30.9987C27.4792 30.9987 31.0208 32.1654 32.4375 33.332H17.0625Z" fill="white"/>
</mask>
<g mask="url(#mask0)">
<rect x="12" y="12" width="26" height="26" fill="#DD695D"/>
</g>
</svg>
