<svg width="50" height="50" viewBox="0 0 50 50" fill="none" xmlns="http://www.w3.org/2000/svg">
<path fill-rule="evenodd" clip-rule="evenodd" d="M41.5 6H8.16667C5.875 6 4 7.875 4 10.1667V39.3333C4 41.625 5.875 43.5 8.16667 43.5H41.5C43.7917 43.5 45.6667 41.625 45.6667 39.3333V10.1667C45.6667 7.875 43.7917 6 41.5 6ZM41.5 39.3333H8.16667V10.1667H41.5V39.3333Z" fill="#DD695D"/>
<path fill-rule="evenodd" clip-rule="evenodd" d="M40.2706 21.4583L37.3122 18.5L30.7081 25.1042L27.7706 22.1458L24.8331 25.0833L30.7081 31L40.2706 21.4583Z" fill="#DD695D"/>
<path d="M20.6667 14.3335H10.25V18.5002H20.6667V14.3335Z" fill="#BABABA"/>
<path d="M20.6667 22.6665H10.25V26.8332H20.6667V22.6665Z" fill="#BABABA"/>
<path d="M20.6667 31H10.25V35.1667H20.6667V31Z" fill="#BABABA"/>
</svg>
