<svg width="50" height="50" viewBox="0 0 50 50" fill="none" xmlns="http://www.w3.org/2000/svg">
<path d="M29.2917 18.7917L31.2083 20.7083L12.3333 39.5833H10.4167V37.6667L29.2917 18.7917ZM36.7917 6.25C36.2708 6.25 35.7292 6.45833 35.3333 6.85417L31.5208 10.6667L39.3333 18.4792L43.1458 14.6667C43.9583 13.8542 43.9583 12.5417 43.1458 11.7292L38.2708 6.85417C37.8542 6.4375 37.3333 6.25 36.7917 6.25ZM29.2917 12.8958L6.25 35.9375V43.75H14.0625L37.1042 20.7083L29.2917 12.8958Z" fill="#DD695D"/>
<mask id="mask0" style="mask-type:alpha" maskUnits="userSpaceOnUse" x="6" y="6" width="38" height="38">
<path d="M29.2917 18.7917L31.2083 20.7083L12.3333 39.5833H10.4167V37.6667L29.2917 18.7917ZM36.7917 6.25C36.2708 6.25 35.7292 6.45833 35.3333 6.85417L31.5208 10.6667L39.3333 18.4792L43.1458 14.6667C43.9583 13.8542 43.9583 12.5417 43.1458 11.7292L38.2708 6.85417C37.8542 6.4375 37.3333 6.25 36.7917 6.25ZM29.2917 12.8958L6.25 35.9375V43.75H14.0625L37.1042 20.7083L29.2917 12.8958Z" fill="white"/>
</mask>
<g mask="url(#mask0)">
<path d="M39.5 20.5L30 11L37 4.5L46 13.5L39.5 20.5Z" fill="#BABABA"/>
</g>
</svg>
