<svg width="50" height="50" viewBox="0 0 50 50" fill="none" xmlns="http://www.w3.org/2000/svg">
<path d="M20.8333 25.0002C25.4375 25.0002 29.1667 21.271 29.1667 16.6668C29.1667 12.0627 25.4375 8.3335 20.8333 8.3335C16.2292 8.3335 12.5 12.0627 12.5 16.6668C12.5 21.271 16.2292 25.0002 20.8333 25.0002ZM20.8333 12.5002C23.125 12.5002 25 14.3752 25 16.6668C25 18.9585 23.125 20.8335 20.8333 20.8335C18.5417 20.8335 16.6667 18.9585 16.6667 16.6668C16.6667 14.3752 18.5417 12.5002 20.8333 12.5002Z" fill="#DD695D"/>
<path d="M8.33335 37.5C8.79169 36 15.2292 33.3333 20.8334 33.3333C20.8334 31.875 21.1042 30.4791 21.5625 29.1875C15.875 28.9791 4.16669 31.8125 4.16669 37.5V41.6666H24.0417C22.9584 40.4583 22.1042 39.0625 21.5625 37.5H8.33335Z" fill="#DD695D"/>
<path d="M40.4792 37.5417C41.2292 36.3125 41.6667 34.875 41.6667 33.3333C41.6667 28.7292 37.9375 25 33.3333 25C28.7292 25 25 28.7292 25 33.3333C25 37.9375 28.7292 41.6667 33.3333 41.6667C34.875 41.6667 36.3125 41.2083 37.5417 40.4792C39.4792 42.4167 40.9167 43.8542 42.8958 45.8333L45.8333 42.8958C42.7083 39.7708 44.1875 41.2292 40.4792 37.5417ZM33.3333 37.5C31.0417 37.5 29.1667 35.625 29.1667 33.3333C29.1667 31.0417 31.0417 29.1667 33.3333 29.1667C35.625 29.1667 37.5 31.0417 37.5 33.3333C37.5 35.625 35.625 37.5 33.3333 37.5Z" fill="#BABABA"/>
</svg>
