<svg width="50" height="50" viewBox="0 0 50 50" fill="none" xmlns="http://www.w3.org/2000/svg">
<path d="M16.6664 33.3332H33.3331V37.4998H16.6664V33.3332ZM16.6664 24.9998H33.3331V29.1665H16.6664V24.9998ZM29.1664 4.1665H12.4997C10.2081 4.1665 8.33307 6.0415 8.33307 8.33317V41.6665C8.33307 43.9582 10.1872 45.8332 12.4789 45.8332H37.4997C39.7914 45.8332 41.6664 43.9582 41.6664 41.6665V16.6665L29.1664 4.1665ZM37.4997 41.6665H12.4997V8.33317H27.0831V18.7498H37.4997V41.6665Z" fill="#DD695D"/>
<mask id="mask0" style="mask-type:alpha" maskUnits="userSpaceOnUse" x="8" y="4" width="34" height="42">
<path d="M16.6663 33.3327H33.333V37.4994H16.6663V33.3327ZM16.6663 24.9994H33.333V29.166H16.6663V24.9994ZM29.1663 4.16602H12.4997C10.208 4.16602 8.33301 6.04102 8.33301 8.33268V41.666C8.33301 43.9577 10.1872 45.8327 12.4788 45.8327H37.4997C39.7913 45.8327 41.6663 43.9577 41.6663 41.666V16.666L29.1663 4.16602ZM37.4997 41.666H12.4997V8.33268H27.083V18.7493H37.4997V41.666Z" fill="#DD695D"/>
</mask>
<g mask="url(#mask0)">
<rect x="15" y="25" width="19" height="13" fill="#BABABA"/>
</g>
</svg>
