<svg width="50" height="50" viewBox="0 0 50 50" fill="none" xmlns="http://www.w3.org/2000/svg">
<path d="M8.3336 37.5002V36.146C8.3336 35.4377 8.66693 34.771 9.18776 34.4585C12.7086 32.3543 16.7294 31.2502 20.8336 31.2502C20.8961 31.2502 20.9378 31.2502 21.0003 31.271C21.2086 29.8127 21.6253 28.4168 22.2294 27.146C21.7711 27.1043 21.3128 27.0835 20.8336 27.0835C15.7919 27.0835 11.0836 28.4793 7.06276 30.8752C5.22943 31.9585 4.16693 34.0002 4.16693 36.146V41.6668H23.4586C22.5836 40.4168 21.8961 39.0002 21.4378 37.5002H8.3336Z" fill="#DD695D"/>
<path d="M20.8333 25.0002C25.4375 25.0002 29.1667 21.271 29.1667 16.6668C29.1667 12.0627 25.4375 8.3335 20.8333 8.3335C16.2292 8.3335 12.5 12.0627 12.5 16.6668C12.5 21.271 16.2292 25.0002 20.8333 25.0002ZM20.8333 12.5002C23.125 12.5002 25 14.3752 25 16.6668C25 18.9585 23.125 20.8335 20.8333 20.8335C18.5417 20.8335 16.6667 18.9585 16.6667 16.6668C16.6667 14.3752 18.5417 12.5002 20.8333 12.5002Z" fill="#DD695D"/>
<path d="M43.2295 33.3337C43.2295 32.8753 43.167 32.4587 43.1045 32.0212L45.4795 29.917L43.3962 26.3128L40.3753 27.3337C39.7087 26.7712 38.9587 26.3337 38.1253 26.0212L37.5003 22.917H33.3337L32.7087 26.0212C31.8753 26.3337 31.1253 26.7712 30.4587 27.3337L27.4378 26.3128L25.3545 29.917L27.7295 32.0212C27.667 32.4587 27.6045 32.8753 27.6045 33.3337C27.6045 33.792 27.667 34.2087 27.7295 34.6462L25.3545 36.7503L27.4378 40.3545L30.4587 39.3337C31.1253 39.8962 31.8753 40.3337 32.7087 40.6462L33.3337 43.7503H37.5003L38.1253 40.6462C38.9587 40.3337 39.7087 39.8962 40.3753 39.3337L43.3962 40.3545L45.4795 36.7503L43.1045 34.6462C43.167 34.2087 43.2295 33.792 43.2295 33.3337ZM35.417 37.5003C33.1253 37.5003 31.2503 35.6253 31.2503 33.3337C31.2503 31.042 33.1253 29.167 35.417 29.167C37.7087 29.167 39.5837 31.042 39.5837 33.3337C39.5837 35.6253 37.7087 37.5003 35.417 37.5003Z" fill="#BABABA"/>
</svg>
